<?xml version="1.0" encoding="utf-8" standalone="no"?>
<!DOCTYPE svg PUBLIC "-//W3C//DTD SVG 1.1//EN"
  "http://www.w3.org/Graphics/SVG/1.1/DTD/svg11.dtd">
<svg xmlns:xlink="http://www.w3.org/1999/xlink" width="709.92pt" height="498.24pt" viewBox="0 0 709.92 498.24" xmlns="http://www.w3.org/2000/svg" version="1.1">
 <metadata>
  <rdf:RDF xmlns:dc="http://purl.org/dc/elements/1.1/" xmlns:cc="http://creativecommons.org/ns#" xmlns:rdf="http://www.w3.org/1999/02/22-rdf-syntax-ns#">
   <cc:Work>
    <dc:type rdf:resource="http://purl.org/dc/dcmitype/StillImage"/>
    <dc:date>2026-07-18T19:03:10.744886</dc:date>
    <dc:format>image/svg+xml</dc:format>
    <dc:creator>
     <cc:Agent>
      <dc:title>Matplotlib v3.10.8, https://matplotlib.org/</dc:title>
     </cc:Agent>
    </dc:creator>
   </cc:Work>
  </rdf:RDF>
 </metadata>
 <defs>
  <style type="text/css">*{stroke-linejoin: round; stroke-linecap: butt}</style>
 </defs>
 <g id="figure_1">
  <g id="patch_1">
   <path d="M 0 498.24 
L 709.92 498.24 
L 709.92 0 
L 0 0 
z
" style="fill: #ffffff"/>
  </g>
  <g id="axes_1">
   <g id="patch_2">
    <path d="M 16.9776 493.9632 
L 692.9424 493.9632 
Q 705.6432 493.9632 705.6432 481.2624 
L 705.6432 16.9776 
Q 705.6432 4.2768 692.9424 4.2768 
L 16.9776 4.2768 
Q 4.2768 4.2768 4.2768 16.9776 
L 4.2768 481.2624 
Q 4.2768 493.9632 16.9776 493.9632 
z
" clip-path="url(#p4aee8ad04f)" style="fill: #f7f9fb; stroke: #d8e0e6; stroke-width: 1.2; stroke-linejoin: miter"/>
   </g>
   <g id="patch_3">
    <path d="M 51.552 259.704 
L 665.424 259.704 
L 665.424 157.392 
L 51.552 157.392 
z
" clip-path="url(#p4aee8ad04f)" style="fill: #e4a321; opacity: 0.07; stroke: #e4a321; stroke-linejoin: miter"/>
   </g>
   <g id="line2d_1">
    <path d="M 40.968 79.776 
L 668.952 79.776 
" clip-path="url(#p4aee8ad04f)" style="fill: none; stroke: #d8e0e6; stroke-linecap: square"/>
   </g>
   <g id="line2d_2">
    <path d="M 55.08 259.704 
L 658.368 259.704 
" clip-path="url(#p4aee8ad04f)" style="fill: none; stroke-dasharray: 3.6,3.6; stroke-dashoffset: 0; stroke: #e4a321; stroke-opacity: 0.85; stroke-width: 0.9"/>
   </g>
   <g id="line2d_3">
    <path d="M 55.08 157.392 
L 658.368 157.392 
" clip-path="url(#p4aee8ad04f)" style="fill: none; stroke-dasharray: 3.6,3.6; stroke-dashoffset: 0; stroke: #e4a321; stroke-opacity: 0.85; stroke-width: 0.9"/>
   </g>
   <g id="text_1">
    <text style="font-weight: 700; font-size: 14px; font-family: 'DejaVu Sans'; text-anchor: start; fill: #102a3a" x="78.3648" y="51.126838" transform="rotate(-0 78.3648 51.126838)">Dynamic Altitude Control</text>
   </g>
   <g id="line2d_4">
    <path d="M 48.024 419.8752 
L 143.28 419.8752 
L 167.976 395.8848 
L 213.84 395.8848 
L 231.48 419.8752 
L 661.896 419.8752 
" clip-path="url(#p4aee8ad04f)" style="fill: none; stroke: #102a3a; stroke-width: 1.8; stroke-linecap: square"/>
   </g>
   <g id="text_2">
    <text style="font-weight: 700; font-size: 9px; font-family: 'DejaVu Sans'; text-anchor: end; fill: #e4a321" x="649.9008" y="142.819481" transform="rotate(-0 649.9008 142.819481)">adaptive altitude band</text>
   </g>
   <g id="patch_4">
    <path d="M 143.28 418.464 
L 213.84 418.464 
L 213.84 309.096 
L 143.28 309.096 
z
" clip-path="url(#p4aee8ad04f)" style="fill: #d9e1e7; stroke: #102a3a; stroke-linejoin: miter"/>
   </g>
   <g id="patch_5">
    <path d="M 340.848 418.464 
L 407.88 418.464 
L 407.88 249.12 
L 340.848 249.12 
z
" clip-path="url(#p4aee8ad04f)" style="fill: #d9e1e7; stroke: #102a3a; stroke-linejoin: miter"/>
   </g>
   <g id="patch_6">
    <path d="M 559.584 418.464 
L 623.088 418.464 
L 623.088 294.984 
L 559.584 294.984 
z
" clip-path="url(#p4aee8ad04f)" style="fill: #d9e1e7; stroke: #102a3a; stroke-linejoin: miter"/>
   </g>
   <g id="line2d_5">
    <path d="M 153.864 330.264 
L 203.256 330.264 
" clip-path="url(#p4aee8ad04f)" style="fill: none; stroke: #ffffff; stroke-width: 2; stroke-linecap: square"/>
   </g>
   <g id="line2d_6">
    <path d="M 351.432 270.288 
L 397.296 270.288 
" clip-path="url(#p4aee8ad04f)" style="fill: none; stroke: #ffffff; stroke-width: 2; stroke-linecap: square"/>
   </g>
   <g id="line2d_7">
    <path d="M 570.168 316.152 
L 612.504 316.152 
" clip-path="url(#p4aee8ad04f)" style="fill: none; stroke: #ffffff; stroke-width: 2; stroke-linecap: square"/>
   </g>
   <g id="line2d_8">
    <path d="M 287.928 189.144 
L 259.704 414.936 
" clip-path="url(#p4aee8ad04f)" style="fill: none; stroke-dasharray: 3.6,3.6; stroke-dashoffset: 0; stroke: #009c86; stroke-width: 1.2"/>
   </g>
   <g id="line2d_9">
    <path d="M 287.928 189.144 
L 316.152 414.936 
" clip-path="url(#p4aee8ad04f)" style="fill: none; stroke-dasharray: 3.6,3.6; stroke-dashoffset: 0; stroke: #009c86; stroke-width: 1.2"/>
   </g>
   <g id="patch_7">
    <path d="M 287.928 196.2 
Q 287.928 296.0424 287.928 394.095946 
" clip-path="url(#p4aee8ad04f)" style="fill: none; stroke-dasharray: 4.8,4.8; stroke-dashoffset: 0; stroke: #009c86; stroke-width: 1.6; stroke-linecap: round"/>
    <path d="M 289.928 390.095946 
L 287.928 394.095946 
L 285.928 390.095946 
z
" clip-path="url(#p4aee8ad04f)" style="fill: #009c86; stroke-dasharray: 4.8,4.8; stroke-dashoffset: 0; stroke: #009c86; stroke-width: 1.6; stroke-linecap: round"/>
   </g>
   <g id="line2d_10">
    <path d="M 69.192 249.12 
L 71.751191 249.217698 
L 74.87842 249.487802 
L 78.510167 249.895833 
L 82.582914 250.407309 
L 87.033142 250.987747 
L 91.797333 251.602667 
L 96.811969 252.217586 
L 102.013531 252.798025 
L 107.3385 253.3095 
L 112.723358 253.717531 
L 118.104586 253.987636 
L 123.418667 254.085333 
L 128.60208 253.976142 
L 133.591309 253.62558 
L 138.322833 252.999167 
L 142.733136 252.06242 
L 146.758698 250.780858 
L 150.336 249.12 
L 153.458691 246.979728 
L 156.196642 244.324049 
L 158.600667 241.214667 
L 160.72158 237.713284 
L 162.610198 233.881605 
L 164.317333 229.781333 
L 165.893802 225.474173 
L 167.39042 221.021827 
L 168.858 216.486 
L 170.347358 211.928395 
L 171.909309 207.410716 
L 173.594667 202.994667 
L 175.454247 198.741951 
L 177.538864 194.714272 
L 179.899333 190.973333 
L 182.586469 187.58084 
L 185.651086 184.598494 
L 189.144 182.088 
L 193.037383 179.97737 
L 197.250173 178.138963 
L 201.753333 176.551 
L 206.517827 175.191704 
L 211.514617 174.039296 
L 216.714667 173.072 
L 222.088938 172.268037 
L 227.608395 171.60563 
L 233.244 171.063 
L 238.966716 170.61837 
L 244.747506 170.249963 
L 250.557333 169.936 
L 256.36716 169.654704 
L 262.147951 169.384296 
L 267.870667 169.103 
L 273.506272 168.789037 
L 279.025728 168.42063 
L 284.4 167.976 
L 289.733136 167.456056 
L 295.138864 166.887111 
L 300.602667 166.2855 
L 306.110025 165.667556 
L 311.64642 165.049611 
L 317.197333 164.448 
L 322.748247 163.879056 
L 328.284642 163.359111 
L 333.792 162.9045 
L 339.255802 162.531556 
L 344.661531 162.256611 
L 349.994667 162.096 
L 355.240691 162.066056 
L 360.385086 162.183111 
L 365.413333 162.4635 
L 370.310914 162.923556 
L 375.063309 163.579611 
L 379.656 164.448 
L 384.063883 165.560179 
L 388.28484 166.920988 
L 392.338833 168.506833 
L 396.245827 170.294123 
L 400.025784 172.259265 
L 403.698667 174.378667 
L 407.284438 176.628735 
L 410.803062 178.985877 
L 414.2745 181.4265 
L 417.718716 183.927012 
L 421.155673 186.463821 
L 424.605333 189.013333 
L 428.08766 191.551957 
L 431.622617 194.056099 
L 435.230167 196.502167 
L 438.930272 198.866568 
L 442.742895 201.12571 
L 446.688 203.256 
L 450.68634 205.349691 
L 454.653827 207.505086 
L 458.603167 209.707667 
L 462.547062 211.942914 
L 466.498216 214.196309 
L 470.469333 216.453333 
L 474.473117 218.699469 
L 478.522272 220.920198 
L 482.6295 223.101 
L 486.807506 225.227358 
L 491.068994 227.284753 
L 495.426667 229.258667 
L 499.893228 231.13458 
L 504.481383 232.897975 
L 509.203833 234.534333 
L 514.073284 236.029136 
L 519.102438 237.367864 
L 524.304 238.536 
L 529.866407 239.523864 
L 535.918815 240.341136 
L 542.385 241.002333 
L 549.188741 241.521975 
L 556.253815 241.91458 
L 563.504 242.194667 
L 570.863074 242.376753 
L 578.254815 242.475358 
L 585.603 242.505 
L 592.831407 242.480198 
L 599.863815 242.415469 
L 606.624 242.325333 
L 613.035741 242.224309 
L 619.022815 242.126914 
L 624.509 242.047667 
L 629.418074 242.001086 
L 633.673815 242.001691 
L 637.2 242.064 
" clip-path="url(#p4aee8ad04f)" style="fill: none; stroke: #ffffff; stroke-width: 6.4; stroke-linecap: round"/>
   </g>
   <g id="line2d_11">
    <path d="M 69.192 249.12 
L 71.751191 249.217698 
L 74.87842 249.487802 
L 78.510167 249.895833 
L 82.582914 250.407309 
L 87.033142 250.987747 
L 91.797333 251.602667 
L 96.811969 252.217586 
L 102.013531 252.798025 
L 107.3385 253.3095 
L 112.723358 253.717531 
L 118.104586 253.987636 
L 123.418667 254.085333 
L 128.60208 253.976142 
L 133.591309 253.62558 
L 138.322833 252.999167 
L 142.733136 252.06242 
L 146.758698 250.780858 
L 150.336 249.12 
L 153.458691 246.979728 
L 156.196642 244.324049 
L 158.600667 241.214667 
L 160.72158 237.713284 
L 162.610198 233.881605 
L 164.317333 229.781333 
L 165.893802 225.474173 
L 167.39042 221.021827 
L 168.858 216.486 
L 170.347358 211.928395 
L 171.909309 207.410716 
L 173.594667 202.994667 
L 175.454247 198.741951 
L 177.538864 194.714272 
L 179.899333 190.973333 
L 182.586469 187.58084 
L 185.651086 184.598494 
L 189.144 182.088 
L 193.037383 179.97737 
L 197.250173 178.138963 
L 201.753333 176.551 
L 206.517827 175.191704 
L 211.514617 174.039296 
L 216.714667 173.072 
L 222.088938 172.268037 
L 227.608395 171.60563 
L 233.244 171.063 
L 238.966716 170.61837 
L 244.747506 170.249963 
L 250.557333 169.936 
L 256.36716 169.654704 
L 262.147951 169.384296 
L 267.870667 169.103 
L 273.506272 168.789037 
L 279.025728 168.42063 
L 284.4 167.976 
L 289.733136 167.456056 
L 295.138864 166.887111 
L 300.602667 166.2855 
L 306.110025 165.667556 
L 311.64642 165.049611 
L 317.197333 164.448 
L 322.748247 163.879056 
L 328.284642 163.359111 
L 333.792 162.9045 
L 339.255802 162.531556 
L 344.661531 162.256611 
L 349.994667 162.096 
L 355.240691 162.066056 
L 360.385086 162.183111 
L 365.413333 162.4635 
L 370.310914 162.923556 
L 375.063309 163.579611 
L 379.656 164.448 
L 384.063883 165.560179 
L 388.28484 166.920988 
L 392.338833 168.506833 
L 396.245827 170.294123 
L 400.025784 172.259265 
L 403.698667 174.378667 
L 407.284438 176.628735 
L 410.803062 178.985877 
L 414.2745 181.4265 
L 417.718716 183.927012 
L 421.155673 186.463821 
L 424.605333 189.013333 
L 428.08766 191.551957 
L 431.622617 194.056099 
L 435.230167 196.502167 
L 438.930272 198.866568 
L 442.742895 201.12571 
L 446.688 203.256 
L 450.68634 205.349691 
L 454.653827 207.505086 
L 458.603167 209.707667 
L 462.547062 211.942914 
L 466.498216 214.196309 
L 470.469333 216.453333 
L 474.473117 218.699469 
L 478.522272 220.920198 
L 482.6295 223.101 
L 486.807506 225.227358 
L 491.068994 227.284753 
L 495.426667 229.258667 
L 499.893228 231.13458 
L 504.481383 232.897975 
L 509.203833 234.534333 
L 514.073284 236.029136 
L 519.102438 237.367864 
L 524.304 238.536 
L 529.866407 239.523864 
L 535.918815 240.341136 
L 542.385 241.002333 
L 549.188741 241.521975 
L 556.253815 241.91458 
L 563.504 242.194667 
L 570.863074 242.376753 
L 578.254815 242.475358 
L 585.603 242.505 
L 592.831407 242.480198 
L 599.863815 242.415469 
L 606.624 242.325333 
L 613.035741 242.224309 
L 619.022815 242.126914 
L 624.509 242.047667 
L 629.418074 242.001086 
L 633.673815 242.001691 
L 637.2 242.064 
" clip-path="url(#p4aee8ad04f)" style="fill: none; stroke: #e4a321; stroke-width: 3.2; stroke-linecap: round"/>
   </g>
   <g id="patch_8">
    <path d="M 599.863815 242.415469 
Q 618.531907 242.239735 633.62245 242.097678 
" clip-path="url(#p4aee8ad04f)" style="fill: none; stroke: #e4a321; stroke-width: 3.2; stroke-linecap: round"/>
    <path d="M 629.201936 239.939193 
L 633.62245 242.097678 
L 629.243354 244.338998 
z
" clip-path="url(#p4aee8ad04f)" style="fill: #e4a321; stroke: #e4a321; stroke-width: 3.2; stroke-linecap: round"/>
   </g>
   <g id="patch_9">
    <path d="M 153.864 270.288 
Q 171.504 237.8304 188.076248 207.337464 
" clip-path="url(#p4aee8ad04f)" style="fill: none; stroke: #dc4c4c; stroke-width: 2; stroke-linecap: round"/>
    <path d="M 184.042215 210.152883 
L 188.076248 207.337464 
L 187.908163 212.253941 
z
" clip-path="url(#p4aee8ad04f)" style="fill: #dc4c4c; stroke: #dc4c4c; stroke-width: 2; stroke-linecap: round"/>
   </g>
   <g id="patch_10">
    <path d="M 450.216 213.84 
Q 479.4984 227.2464 506.747683 239.721975 
" clip-path="url(#p4aee8ad04f)" style="fill: none; stroke: #298b57; stroke-width: 2; stroke-linecap: round"/>
    <path d="M 503.662848 235.890032 
L 506.747683 239.721975 
L 501.831227 239.890677 
z
" clip-path="url(#p4aee8ad04f)" style="fill: #298b57; stroke: #298b57; stroke-width: 2; stroke-linecap: round"/>
   </g>
   <g id="patch_11">
    <path d="M 48.024 67.7808 
C 53.263565 67.7808 58.289236 65.699099 61.994167 61.994167 
C 65.699099 58.289236 67.7808 53.263565 67.7808 48.024 
C 67.7808 42.784435 65.699099 37.758764 61.994167 34.053833 
C 58.289236 30.348901 53.263565 28.2672 48.024 28.2672 
C 42.784435 28.2672 37.758764 30.348901 34.053833 34.053833 
C 30.348901 37.758764 28.2672 42.784435 28.2672 48.024 
C 28.2672 53.263565 30.348901 58.289236 34.053833 61.994167 
C 37.758764 65.699099 42.784435 67.7808 48.024 67.7808 
z
" clip-path="url(#p4aee8ad04f)" style="fill: #e4a321"/>
   </g>
   <g id="text_3">
    <text style="font-weight: 700; font-size: 10px; font-family: 'DejaVu Sans'; text-anchor: middle; fill: #ffffff" x="48.024" y="50.783375" transform="rotate(-0 48.024 50.783375)">3</text>
   </g>
   <g id="text_4">
    <text style="font-weight: 700; font-size: 9px; font-family: 'DejaVu Sans'; fill: #dc4c4c" transform="translate(59.912578 297.50343)">large safety</text>
    <text style="font-weight: 700; font-size: 9px; font-family: 'DejaVu Sans'; fill: #dc4c4c" transform="translate(64.454062 307.309845)">correction</text>
   </g>
   <g id="text_5">
    <text style="font-weight: 700; font-size: 9px; font-family: 'DejaVu Sans'; fill: #298b57" transform="translate(436.370203 293.940274)">steady forward</text>
    <text style="font-weight: 700; font-size: 9px; font-family: 'DejaVu Sans'; fill: #298b57" transform="translate(452.531531 303.746688)">progress</text>
   </g>
   <g id="line2d_12">
    <path d="M 76.248 249.12 
L 63.599239 264.194206 
" clip-path="url(#p4aee8ad04f)" style="fill: none; stroke: #102a3a; stroke-width: 1.276; stroke-linecap: round"/>
   </g>
   <g id="line2d_13">
    <path d="M 76.248 249.12 
L 61.173794 236.471239 
" clip-path="url(#p4aee8ad04f)" style="fill: none; stroke: #102a3a; stroke-width: 1.276; stroke-linecap: round"/>
   </g>
   <g id="line2d_14">
    <path d="M 76.248 249.12 
L 91.322206 261.768761 
" clip-path="url(#p4aee8ad04f)" style="fill: none; stroke: #102a3a; stroke-width: 1.276; stroke-linecap: round"/>
   </g>
   <g id="line2d_15">
    <path d="M 76.248 249.12 
L 88.896761 234.045794 
" clip-path="url(#p4aee8ad04f)" style="fill: none; stroke: #102a3a; stroke-width: 1.276; stroke-linecap: round"/>
   </g>
   <g id="line2d_16">
    <path d="M 287.928 168.6816 
L 274.013568 182.596032 
" clip-path="url(#p4aee8ad04f)" style="fill: none; stroke: #102a3a; stroke-width: 1.276; stroke-linecap: round"/>
   </g>
   <g id="line2d_17">
    <path d="M 287.928 168.6816 
L 274.013568 154.767168 
" clip-path="url(#p4aee8ad04f)" style="fill: none; stroke: #102a3a; stroke-width: 1.276; stroke-linecap: round"/>
   </g>
   <g id="line2d_18">
    <path d="M 287.928 168.6816 
L 301.842432 182.596032 
" clip-path="url(#p4aee8ad04f)" style="fill: none; stroke: #102a3a; stroke-width: 1.276; stroke-linecap: round"/>
   </g>
   <g id="line2d_19">
    <path d="M 287.928 168.6816 
L 301.842432 154.767168 
" clip-path="url(#p4aee8ad04f)" style="fill: none; stroke: #102a3a; stroke-width: 1.276; stroke-linecap: round"/>
   </g>
   <g id="line2d_20">
    <path d="M 633.672 242.064 
L 618.597794 254.712761 
" clip-path="url(#p4aee8ad04f)" style="fill: none; stroke: #102a3a; stroke-width: 1.276; stroke-linecap: round"/>
   </g>
   <g id="line2d_21">
    <path d="M 633.672 242.064 
L 621.023239 226.989794 
" clip-path="url(#p4aee8ad04f)" style="fill: none; stroke: #102a3a; stroke-width: 1.276; stroke-linecap: round"/>
   </g>
   <g id="line2d_22">
    <path d="M 633.672 242.064 
L 646.320761 257.138206 
" clip-path="url(#p4aee8ad04f)" style="fill: none; stroke: #102a3a; stroke-width: 1.276; stroke-linecap: round"/>
   </g>
   <g id="line2d_23">
    <path d="M 633.672 242.064 
L 648.746206 229.415239 
" clip-path="url(#p4aee8ad04f)" style="fill: none; stroke: #102a3a; stroke-width: 1.276; stroke-linecap: round"/>
   </g>
   <g id="patch_12">
    <path d="M 64.062927 269.494185 
C 65.468498 269.371213 66.767833 268.694823 67.674767 267.61398 
C 68.581702 266.533137 69.02219 265.136089 68.899218 263.730518 
C 68.776247 262.324947 68.099856 261.025613 67.019013 260.118678 
C 65.938171 259.211743 64.541122 258.771256 63.135551 258.894227 
C 61.72998 259.017199 60.430646 259.693589 59.523711 260.774432 
C 58.616777 261.855275 58.176289 263.252323 58.29926 264.657894 
C 58.422232 266.063465 59.098623 267.362799 60.179465 268.269734 
C 61.260308 269.176669 62.657356 269.617156 64.062927 269.494185 
z
" clip-path="url(#p4aee8ad04f)" style="fill: #ffffff; stroke: #102a3a; stroke-width: 0.986; stroke-linejoin: miter"/>
   </g>
   <g id="patch_13">
    <path d="M 61.637482 241.771218 
C 63.043053 241.648247 64.342387 240.971856 65.249322 239.891013 
C 66.156257 238.810171 66.596744 237.413122 66.473773 236.007551 
C 66.350801 234.60198 65.674411 233.302646 64.593568 232.395711 
C 63.512725 231.488777 62.115677 231.048289 60.710106 231.17126 
C 59.304535 231.294232 58.005201 231.970623 57.098266 233.051465 
C 56.191331 234.132308 55.750844 235.529356 55.873815 236.934927 
C 55.996787 238.340498 56.673177 239.639833 57.75402 240.546767 
C 58.834863 241.453702 60.231911 241.89419 61.637482 241.771218 
z
" clip-path="url(#p4aee8ad04f)" style="fill: #ffffff; stroke: #102a3a; stroke-width: 0.986; stroke-linejoin: miter"/>
   </g>
   <g id="patch_14">
    <path d="M 91.785894 267.06874 
C 93.191465 266.945768 94.490799 266.269377 95.397734 265.188535 
C 96.304669 264.107692 96.745156 262.710644 96.622185 261.305073 
C 96.499213 259.899502 95.822823 258.600167 94.74198 257.693233 
C 93.661137 256.786298 92.264089 256.34581 90.858518 256.468782 
C 89.452947 256.591753 88.153613 257.268144 87.246678 258.348987 
C 86.339743 259.429829 85.899256 260.826878 86.022227 262.232449 
C 86.145199 263.63802 86.821589 264.937354 87.902432 265.844289 
C 88.983275 266.751223 90.380323 267.191711 91.785894 267.06874 
z
" clip-path="url(#p4aee8ad04f)" style="fill: #ffffff; stroke: #102a3a; stroke-width: 0.986; stroke-linejoin: miter"/>
   </g>
   <g id="patch_15">
    <path d="M 89.360449 239.345773 
C 90.76602 239.222801 92.065354 238.546411 92.972289 237.465568 
C 93.879223 236.384725 94.319711 234.987677 94.19674 233.582106 
C 94.073768 232.176535 93.397377 230.877201 92.316535 229.970266 
C 91.235692 229.063331 89.838644 228.622844 88.433073 228.745815 
C 87.027502 228.868787 85.728167 229.545177 84.821233 230.62602 
C 83.914298 231.706863 83.47381 233.103911 83.596782 234.509482 
C 83.719753 235.915053 84.396144 237.214387 85.476987 238.121322 
C 86.557829 239.028257 87.954878 239.468744 89.360449 239.345773 
z
" clip-path="url(#p4aee8ad04f)" style="fill: #ffffff; stroke: #102a3a; stroke-width: 0.986; stroke-linejoin: miter"/>
   </g>
   <g id="patch_16">
    <path d="M 274.013568 187.916256 
C 275.424508 187.916256 276.777849 187.355684 277.775534 186.357998 
C 278.77322 185.360313 279.333792 184.006972 279.333792 182.596032 
C 279.333792 181.185092 278.77322 179.831751 277.775534 178.834066 
C 276.777849 177.83638 275.424508 177.275808 274.013568 177.275808 
C 272.602628 177.275808 271.249287 177.83638 270.251602 178.834066 
C 269.253916 179.831751 268.693344 181.185092 268.693344 182.596032 
C 268.693344 184.006972 269.253916 185.360313 270.251602 186.357998 
C 271.249287 187.355684 272.602628 187.916256 274.013568 187.916256 
z
" clip-path="url(#p4aee8ad04f)" style="fill: #ffffff; stroke: #102a3a; stroke-width: 0.986; stroke-linejoin: miter"/>
   </g>
   <g id="patch_17">
    <path d="M 274.013568 160.087392 
C 275.424508 160.087392 276.777849 159.52682 277.775534 158.529134 
C 278.77322 157.531449 279.333792 156.178108 279.333792 154.767168 
C 279.333792 153.356228 278.77322 152.002887 277.775534 151.005202 
C 276.777849 150.007516 275.424508 149.446944 274.013568 149.446944 
C 272.602628 149.446944 271.249287 150.007516 270.251602 151.005202 
C 269.253916 152.002887 268.693344 153.356228 268.693344 154.767168 
C 268.693344 156.178108 269.253916 157.531449 270.251602 158.529134 
C 271.249287 159.52682 272.602628 160.087392 274.013568 160.087392 
z
" clip-path="url(#p4aee8ad04f)" style="fill: #ffffff; stroke: #102a3a; stroke-width: 0.986; stroke-linejoin: miter"/>
   </g>
   <g id="patch_18">
    <path d="M 301.842432 187.916256 
C 303.253372 187.916256 304.606713 187.355684 305.604398 186.357998 
C 306.602084 185.360313 307.162656 184.006972 307.162656 182.596032 
C 307.162656 181.185092 306.602084 179.831751 305.604398 178.834066 
C 304.606713 177.83638 303.253372 177.275808 301.842432 177.275808 
C 300.431492 177.275808 299.078151 177.83638 298.080466 178.834066 
C 297.08278 179.831751 296.522208 181.185092 296.522208 182.596032 
C 296.522208 184.006972 297.08278 185.360313 298.080466 186.357998 
C 299.078151 187.355684 300.431492 187.916256 301.842432 187.916256 
z
" clip-path="url(#p4aee8ad04f)" style="fill: #ffffff; stroke: #102a3a; stroke-width: 0.986; stroke-linejoin: miter"/>
   </g>
   <g id="patch_19">
    <path d="M 301.842432 160.087392 
C 303.253372 160.087392 304.606713 159.52682 305.604398 158.529134 
C 306.602084 157.531449 307.162656 156.178108 307.162656 154.767168 
C 307.162656 153.356228 306.602084 152.002887 305.604398 151.005202 
C 304.606713 150.007516 303.253372 149.446944 301.842432 149.446944 
C 300.431492 149.446944 299.078151 150.007516 298.080466 151.005202 
C 297.08278 152.002887 296.522208 153.356228 296.522208 154.767168 
C 296.522208 156.178108 297.08278 157.531449 298.080466 158.529134 
C 299.078151 159.52682 300.431492 160.087392 301.842432 160.087392 
z
" clip-path="url(#p4aee8ad04f)" style="fill: #ffffff; stroke: #102a3a; stroke-width: 0.986; stroke-linejoin: miter"/>
   </g>
   <g id="patch_20">
    <path d="M 618.134106 260.01274 
C 619.539677 260.135711 620.936725 259.695223 622.017568 258.788289 
C 623.098411 257.881354 623.774801 256.58202 623.897773 255.176449 
C 624.020744 253.770878 623.580257 252.373829 622.673322 251.292987 
C 621.766387 250.212144 620.467053 249.535753 619.061482 249.412782 
C 617.655911 249.28981 616.258863 249.730298 615.17802 250.637233 
C 614.097177 251.544167 613.420787 252.843502 613.297815 254.249073 
C 613.174844 255.654644 613.615331 257.051692 614.522266 258.132535 
C 615.429201 259.213377 616.728535 259.889768 618.134106 260.01274 
z
" clip-path="url(#p4aee8ad04f)" style="fill: #ffffff; stroke: #102a3a; stroke-width: 0.986; stroke-linejoin: miter"/>
   </g>
   <g id="patch_21">
    <path d="M 620.559551 232.289773 
C 621.965122 232.412744 623.362171 231.972257 624.443013 231.065322 
C 625.523856 230.158387 626.200247 228.859053 626.323218 227.453482 
C 626.44619 226.047911 626.005702 224.650863 625.098767 223.57002 
C 624.191833 222.489177 622.892498 221.812787 621.486927 221.689815 
C 620.081356 221.566844 618.684308 222.007331 617.603465 222.914266 
C 616.522623 223.821201 615.846232 225.120535 615.72326 226.526106 
C 615.600289 227.931677 616.040777 229.328725 616.947711 230.409568 
C 617.854646 231.490411 619.15398 232.166801 620.559551 232.289773 
z
" clip-path="url(#p4aee8ad04f)" style="fill: #ffffff; stroke: #102a3a; stroke-width: 0.986; stroke-linejoin: miter"/>
   </g>
   <g id="patch_22">
    <path d="M 645.857073 262.438185 
C 647.262644 262.561156 648.659692 262.120669 649.740535 261.213734 
C 650.821377 260.306799 651.497768 259.007465 651.62074 257.601894 
C 651.743711 256.196323 651.303223 254.799275 650.396289 253.718432 
C 649.489354 252.637589 648.19002 251.961199 646.784449 251.838227 
C 645.378878 251.715256 643.981829 252.155743 642.900987 253.062678 
C 641.820144 253.969613 641.143753 255.268947 641.020782 256.674518 
C 640.89781 258.080089 641.338298 259.477137 642.245233 260.55798 
C 643.152167 261.638823 644.451502 262.315213 645.857073 262.438185 
z
" clip-path="url(#p4aee8ad04f)" style="fill: #ffffff; stroke: #102a3a; stroke-width: 0.986; stroke-linejoin: miter"/>
   </g>
   <g id="patch_23">
    <path d="M 648.282518 234.715218 
C 649.688089 234.83819 651.085137 234.397702 652.16598 233.490767 
C 653.246823 232.583833 653.923213 231.284498 654.046185 229.878927 
C 654.169156 228.473356 653.728669 227.076308 652.821734 225.995465 
C 651.914799 224.914623 650.615465 224.238232 649.209894 224.11526 
C 647.804323 223.992289 646.407275 224.432777 645.326432 225.339711 
C 644.245589 226.246646 643.569199 227.54598 643.446227 228.951551 
C 643.323256 230.357122 643.763743 231.754171 644.670678 232.835013 
C 645.577613 233.915856 646.876947 234.592247 648.282518 234.715218 
z
" clip-path="url(#p4aee8ad04f)" style="fill: #ffffff; stroke: #102a3a; stroke-width: 0.986; stroke-linejoin: miter"/>
   </g>
   <g id="patch_24">
    <path d="M 71.177982 255.612411 
L 82.368388 254.633377 
Q 85.629914 254.348031 85.344567 251.086505 
L 84.86489 245.603768 
Q 84.579544 242.342243 81.318018 242.627589 
L 70.127612 243.606623 
Q 66.866086 243.891969 67.151433 247.153495 
L 67.63111 252.636232 
Q 67.916456 255.897757 71.177982 255.612411 
z
" clip-path="url(#p4aee8ad04f)" style="fill: #102a3a; stroke: #ffffff; stroke-width: 0.8; stroke-linejoin: miter"/>
   </g>
   <g id="patch_25">
    <path d="M 282.311424 174.707424 
L 293.544576 174.707424 
Q 296.81856 174.707424 296.81856 171.43344 
L 296.81856 165.92976 
Q 296.81856 162.655776 293.544576 162.655776 
L 282.311424 162.655776 
Q 279.03744 162.655776 279.03744 165.92976 
L 279.03744 171.43344 
Q 279.03744 174.707424 282.311424 174.707424 
z
" clip-path="url(#p4aee8ad04f)" style="fill: #102a3a; stroke: #ffffff; stroke-width: 0.8; stroke-linejoin: miter"/>
   </g>
   <g id="patch_26">
    <path d="M 627.551612 247.577377 
L 638.742018 248.556411 
Q 642.003544 248.841757 642.28889 245.580232 
L 642.768567 240.097495 
Q 643.053914 236.835969 639.792388 236.550623 
L 628.601982 235.571589 
Q 625.340456 235.286243 625.05511 238.547768 
L 624.575433 244.030505 
Q 624.290086 247.292031 627.551612 247.577377 
z
" clip-path="url(#p4aee8ad04f)" style="fill: #102a3a; stroke: #ffffff; stroke-width: 0.8; stroke-linejoin: miter"/>
   </g>
   <g id="patch_27">
    <path d="M 76.248 249.12 
Q 86.069952 249.12 94.919214 249.12 
" clip-path="url(#p4aee8ad04f)" style="fill: none; stroke: #102a3a; stroke-width: 0.87; stroke-linecap: round"/>
    <path d="M 93.063214 248.192 
L 94.919214 249.12 
L 93.063214 250.048 
z
" clip-path="url(#p4aee8ad04f)" style="fill: #102a3a; stroke: #102a3a; stroke-width: 0.87; stroke-linecap: round"/>
   </g>
   <g id="patch_28">
    <path d="M 287.928 168.6816 
Q 297.749952 168.6816 306.599214 168.6816 
" clip-path="url(#p4aee8ad04f)" style="fill: none; stroke: #102a3a; stroke-width: 0.87; stroke-linecap: round"/>
    <path d="M 304.743214 167.7536 
L 306.599214 168.6816 
L 304.743214 169.6096 
z
" clip-path="url(#p4aee8ad04f)" style="fill: #102a3a; stroke: #102a3a; stroke-width: 0.87; stroke-linecap: round"/>
   </g>
   <g id="patch_29">
    <path d="M 633.672 242.064 
Q 643.493952 242.064 652.343214 242.064 
" clip-path="url(#p4aee8ad04f)" style="fill: none; stroke: #102a3a; stroke-width: 0.87; stroke-linecap: round"/>
    <path d="M 650.487214 241.136 
L 652.343214 242.064 
L 650.487214 242.992 
z
" clip-path="url(#p4aee8ad04f)" style="fill: #102a3a; stroke: #102a3a; stroke-width: 0.87; stroke-linecap: round"/>
   </g>
   <g id="patch_30">
    <path d="M 226.8936 369.072 
L 348.9624 369.072 
Q 361.6632 369.072 361.6632 356.3712 
L 361.6632 346.4928 
Q 361.6632 333.792 348.9624 333.792 
L 226.8936 333.792 
Q 214.1928 333.792 214.1928 346.4928 
L 214.1928 356.3712 
Q 214.1928 369.072 226.8936 369.072 
z
" clip-path="url(#p4aee8ad04f)" style="fill: #009c86"/>
   </g>
   <g id="patch_31">
    <path d="M 78.7176 474.912 
L 229.0104 474.912 
Q 241.7112 474.912 241.7112 462.2112 
L 241.7112 452.3328 
Q 241.7112 439.632 229.0104 439.632 
L 78.7176 439.632 
Q 66.0168 439.632 66.0168 452.3328 
L 66.0168 462.2112 
Q 66.0168 474.912 78.7176 474.912 
z
" clip-path="url(#p4aee8ad04f)" style="fill: #dc4c4c"/>
   </g>
   <g id="patch_32">
    <path d="M 452.6856 474.912 
L 602.9784 474.912 
Q 615.6792 474.912 615.6792 462.2112 
L 615.6792 452.3328 
Q 615.6792 439.632 602.9784 439.632 
L 452.6856 439.632 
Q 439.9848 439.632 439.9848 452.3328 
L 439.9848 462.2112 
Q 439.9848 474.912 452.6856 474.912 
z
" clip-path="url(#p4aee8ad04f)" style="fill: #298b57"/>
   </g>
   <g id="text_6">
    <text style="font-weight: 700; font-size: 8.8px; font-family: 'DejaVu Sans'; text-anchor: middle; fill: #ffffff" x="287.928" y="353.86025" transform="rotate(-0 287.928 353.86025)">downward depth</text>
   </g>
   <g id="text_7">
    <text style="font-weight: 700; font-size: 8.7px; font-family: 'DejaVu Sans'; text-anchor: middle; fill: #ffffff" x="153.864" y="459.638672" transform="rotate(-0 153.864 459.638672)">raise desired height</text>
   </g>
   <g id="text_8">
    <text style="font-weight: 700; font-size: 8.7px; font-family: 'DejaVu Sans'; text-anchor: middle; fill: #ffffff" x="527.832" y="459.638672" transform="rotate(-0 527.832 459.638672)">lower desired height</text>
   </g>
  </g>
 </g>
 <defs>
  <clipPath id="p4aee8ad04f">
   <rect x="2.16" y="2.16" width="705.6" height="493.92"/>
  </clipPath>
 </defs>
</svg>
