<?xml version="1.0" encoding="utf-8" standalone="no"?>
<!DOCTYPE svg PUBLIC "-//W3C//DTD SVG 1.1//EN"
  "http://www.w3.org/Graphics/SVG/1.1/DTD/svg11.dtd">
<svg xmlns:xlink="http://www.w3.org/1999/xlink" width="709.92pt" height="498.24pt" viewBox="0 0 709.92 498.24" xmlns="http://www.w3.org/2000/svg" version="1.1">
 <metadata>
  <rdf:RDF xmlns:dc="http://purl.org/dc/elements/1.1/" xmlns:cc="http://creativecommons.org/ns#" xmlns:rdf="http://www.w3.org/1999/02/22-rdf-syntax-ns#">
   <cc:Work>
    <dc:type rdf:resource="http://purl.org/dc/dcmitype/StillImage"/>
    <dc:date>2026-07-18T19:03:10.845919</dc:date>
    <dc:format>image/svg+xml</dc:format>
    <dc:creator>
     <cc:Agent>
      <dc:title>Matplotlib v3.10.8, https://matplotlib.org/</dc:title>
     </cc:Agent>
    </dc:creator>
   </cc:Work>
  </rdf:RDF>
 </metadata>
 <defs>
  <style type="text/css">*{stroke-linejoin: round; stroke-linecap: butt}</style>
 </defs>
 <g id="figure_1">
  <g id="patch_1">
   <path d="M 0 498.24 
L 709.92 498.24 
L 709.92 0 
L 0 0 
z
" style="fill: #ffffff"/>
  </g>
  <g id="axes_1">
   <g id="patch_2">
    <path d="M 16.9776 493.9632 
L 692.9424 493.9632 
Q 705.6432 493.9632 705.6432 481.2624 
L 705.6432 16.9776 
Q 705.6432 4.2768 692.9424 4.2768 
L 16.9776 4.2768 
Q 4.2768 4.2768 4.2768 16.9776 
L 4.2768 481.2624 
Q 4.2768 493.9632 16.9776 493.9632 
z
" clip-path="url(#p4aee8ad04f)" style="fill: #f7f9fb; stroke: #d8e0e6; stroke-width: 1.2; stroke-linejoin: miter"/>
   </g>
   <g id="patch_3">
    <path d="M 577.224 661.896 
C 667.045108 661.896 753.199467 626.209696 816.712582 562.696582 
C 880.225696 499.183467 915.912 413.029108 915.912 323.208 
C 915.912 233.386892 880.225696 147.232533 816.712582 83.719418 
C 753.199467 20.206304 667.045108 -15.48 577.224 -15.48 
C 487.402892 -15.48 401.248533 20.206304 337.735418 83.719418 
C 274.222304 147.232533 238.536 233.386892 238.536 323.208 
C 238.536 413.029108 274.222304 499.183467 337.735418 562.696582 
C 401.248533 626.209696 487.402892 661.896 577.224 661.896 
z
" clip-path="url(#p4aee8ad04f)" style="fill: #009c86; opacity: 0.16"/>
   </g>
   <g id="patch_4">
    <path d="M 577.224 563.112 
C 640.847285 563.112 701.873289 537.834201 746.861745 492.845745 
C 791.850201 447.857289 817.128 386.831285 817.128 323.208 
C 817.128 259.584715 791.850201 198.558711 746.861745 153.570255 
C 701.873289 108.581799 640.847285 83.304 577.224 83.304 
C 513.600715 83.304 452.574711 108.581799 407.586255 153.570255 
C 362.597799 198.558711 337.32 259.584715 337.32 323.208 
C 337.32 386.831285 362.597799 447.857289 407.586255 492.845745 
C 452.574711 537.834201 513.600715 563.112 577.224 563.112 
z
" clip-path="url(#p4aee8ad04f)" style="fill: #e4a321; opacity: 0.13"/>
   </g>
   <g id="patch_5">
    <path d="M 577.224 439.632 
C 608.100006 439.632 637.715567 427.364833 659.5482 405.5322 
C 681.380833 383.699567 693.648 354.084006 693.648 323.208 
C 693.648 292.331994 681.380833 262.716433 659.5482 240.8838 
C 637.715567 219.051167 608.100006 206.784 577.224 206.784 
C 546.347994 206.784 516.732433 219.051167 494.8998 240.8838 
C 473.067167 262.716433 460.8 292.331994 460.8 323.208 
C 460.8 354.084006 473.067167 383.699567 494.8998 405.5322 
C 516.732433 427.364833 546.347994 439.632 577.224 439.632 
z
" clip-path="url(#p4aee8ad04f)" style="fill: #dc4c4c; opacity: 0.12"/>
   </g>
   <g id="line2d_1">
    <path d="M 40.968 79.776 
L 668.952 79.776 
" clip-path="url(#p4aee8ad04f)" style="fill: none; stroke: #d8e0e6; stroke-linecap: square"/>
   </g>
   <g id="patch_6">
    <path d="M 577.224 661.896 
C 667.045108 661.896 753.199467 626.209696 816.712582 562.696582 
C 880.225696 499.183467 915.912 413.029108 915.912 323.208 
C 915.912 233.386892 880.225696 147.232533 816.712582 83.719418 
C 753.199467 20.206304 667.045108 -15.48 577.224 -15.48 
C 487.402892 -15.48 401.248533 20.206304 337.735418 83.719418 
C 274.222304 147.232533 238.536 233.386892 238.536 323.208 
C 238.536 413.029108 274.222304 499.183467 337.735418 562.696582 
C 401.248533 626.209696 487.402892 661.896 577.224 661.896 
" clip-path="url(#p4aee8ad04f)" style="fill: none; stroke-dasharray: 11,8.8; stroke-dashoffset: 0; stroke: #009c86; stroke-width: 2.2; stroke-linejoin: miter"/>
   </g>
   <g id="patch_7">
    <path d="M 577.224 563.112 
C 640.847285 563.112 701.873289 537.834201 746.861745 492.845745 
C 791.850201 447.857289 817.128 386.831285 817.128 323.208 
C 817.128 259.584715 791.850201 198.558711 746.861745 153.570255 
C 701.873289 108.581799 640.847285 83.304 577.224 83.304 
C 513.600715 83.304 452.574711 108.581799 407.586255 153.570255 
C 362.597799 198.558711 337.32 259.584715 337.32 323.208 
C 337.32 386.831285 362.597799 447.857289 407.586255 492.845745 
C 452.574711 537.834201 513.600715 563.112 577.224 563.112 
" clip-path="url(#p4aee8ad04f)" style="fill: none; stroke-dasharray: 11,8.8; stroke-dashoffset: 0; stroke: #e4a321; stroke-width: 2.2; stroke-linejoin: miter"/>
   </g>
   <g id="patch_8">
    <path d="M 577.224 439.632 
C 608.100006 439.632 637.715567 427.364833 659.5482 405.5322 
C 681.380833 383.699567 693.648 354.084006 693.648 323.208 
C 693.648 292.331994 681.380833 262.716433 659.5482 240.8838 
C 637.715567 219.051167 608.100006 206.784 577.224 206.784 
C 546.347994 206.784 516.732433 219.051167 494.8998 240.8838 
C 473.067167 262.716433 460.8 292.331994 460.8 323.208 
C 460.8 354.084006 473.067167 383.699567 494.8998 405.5322 
C 516.732433 427.364833 546.347994 439.632 577.224 439.632 
L 577.224 439.632 
z
" clip-path="url(#p4aee8ad04f)" style="fill: none; stroke-dasharray: 11,8.8; stroke-dashoffset: 0; stroke: #dc4c4c; stroke-width: 2.2; stroke-linejoin: miter"/>
   </g>
   <g id="text_1">
    <text style="font-weight: 700; font-size: 13.2px; font-family: 'DejaVu Sans'; text-anchor: start; fill: #102a3a" x="78.3648" y="50.909213" transform="rotate(-0 78.3648 50.909213)">Approaching and Recognizing Target</text>
   </g>
   <g id="text_2">
    <text style="font-weight: 700; font-size: 9.2px; font-family: 'DejaVu Sans'; text-anchor: middle; fill: #dc4c4c" x="577.224" y="293.704413" transform="rotate(-0 577.224 293.704413)">target</text>
   </g>
   <g id="line2d_2">
    <path d="M 506.664 233.5968 
L 577.224 323.208 
" clip-path="url(#p4aee8ad04f)" style="fill: none; stroke-dasharray: 2,3; stroke-dashoffset: 0; stroke: #7257c8; stroke-opacity: 0.7"/>
   </g>
   <g id="line2d_3">
    <path d="M 644.256 235.008 
L 577.224 323.208 
" clip-path="url(#p4aee8ad04f)" style="fill: none; stroke-dasharray: 2,3; stroke-dashoffset: 0; stroke: #7257c8; stroke-opacity: 0.7"/>
   </g>
   <g id="line2d_4">
    <path d="M 637.2 411.408 
L 577.224 323.208 
" clip-path="url(#p4aee8ad04f)" style="fill: none; stroke-dasharray: 2,3; stroke-dashoffset: 0; stroke: #7257c8; stroke-opacity: 0.7"/>
   </g>
   <g id="text_3">
    <text style="font-weight: 700; font-size: 8.8px; font-family: 'DejaVu Sans'; text-anchor: end; fill: #7257c8" x="640.728" y="210.529925" transform="rotate(-0 640.728 210.529925)">surrounding context</text>
   </g>
   <g id="patch_9">
    <path d="M 494.6688 245.592 
L 518.6592 245.592 
L 518.6592 221.6016 
L 494.6688 221.6016 
z
" clip-path="url(#p4aee8ad04f)" style="fill: #7257c8; stroke: #ffffff; stroke-width: 0.8; stroke-linejoin: miter"/>
   </g>
   <g id="patch_10">
    <path d="M 644.256 248.4144 
C 647.811419 248.4144 651.221696 247.001817 653.735756 244.487756 
C 656.249817 241.973696 657.6624 238.563419 657.6624 235.008 
C 657.6624 231.452581 656.249817 228.042304 653.735756 225.528244 
C 651.221696 223.014183 647.811419 221.6016 644.256 221.6016 
C 640.700581 221.6016 637.290304 223.014183 634.776244 225.528244 
C 632.262183 228.042304 630.8496 231.452581 630.8496 235.008 
C 630.8496 238.563419 632.262183 241.973696 634.776244 244.487756 
C 637.290304 247.001817 640.700581 248.4144 644.256 248.4144 
z
" clip-path="url(#p4aee8ad04f)" style="fill: #7257c8; stroke: #ffffff; stroke-width: 0.8; stroke-linejoin: miter"/>
   </g>
   <g id="patch_11">
    <path d="M 625.2048 423.4032 
L 649.1952 423.4032 
L 649.1952 399.4128 
L 625.2048 399.4128 
z
" clip-path="url(#p4aee8ad04f)" style="fill: #7257c8; stroke: #ffffff; stroke-width: 0.8; stroke-linejoin: miter"/>
   </g>
   <g id="line2d_5">
    <path d="M 284.4 390.24 
L 285.263549 389.904622 
L 286.277728 389.595378 
L 287.429833 389.2992 
L 288.70716 389.003022 
L 290.097006 388.693778 
L 291.586667 388.3584 
L 293.163438 387.983822 
L 294.814617 387.556978 
L 296.5275 387.0648 
L 298.289383 386.494222 
L 300.087562 385.832178 
L 301.909333 385.0656 
L 303.741994 384.181422 
L 305.57284 383.166578 
L 307.389167 382.008 
L 309.178272 380.692622 
L 310.927451 379.207378 
L 312.624 377.5392 
L 314.290302 375.622816 
L 315.95842 373.423684 
L 317.630167 370.974833 
L 319.307358 368.309294 
L 320.991809 365.460095 
L 322.685333 362.460267 
L 324.389747 359.342838 
L 326.106864 356.14084 
L 327.8385 352.8873 
L 329.586469 349.615249 
L 331.352586 346.357717 
L 333.138667 343.147733 
L 334.946525 340.018327 
L 336.777975 337.002528 
L 338.634833 334.133367 
L 340.518914 331.443872 
L 342.432031 328.967073 
L 344.376 326.736 
L 346.352031 324.684231 
L 348.358914 322.722114 
L 350.394833 320.847833 
L 352.457975 319.059575 
L 354.546525 317.355525 
L 356.658667 315.733867 
L 358.792586 314.192786 
L 360.946469 312.730469 
L 363.1185 311.3451 
L 365.306864 310.034864 
L 367.509747 308.797947 
L 369.725333 307.632533 
L 371.951809 306.536809 
L 374.187358 305.508958 
L 376.430167 304.547167 
L 378.67842 303.64962 
L 380.930302 302.814502 
L 383.184 302.04 
L 385.407451 301.336215 
L 387.578272 300.713007 
L 389.709167 300.1682 
L 391.81284 299.699615 
L 393.901994 299.305074 
L 395.989333 298.9824 
L 398.087562 298.729415 
L 400.209383 298.543941 
L 402.3675 298.4238 
L 404.574617 298.366815 
L 406.843438 298.370807 
L 409.186667 298.4336 
L 411.617006 298.553015 
L 414.14716 298.726874 
L 416.789833 298.953 
L 419.557728 299.229215 
L 422.463549 299.553341 
L 425.52 299.9232 
L 428.843531 300.393902 
L 432.508247 301.010153 
L 436.463333 301.754167 
L 440.657975 302.608158 
L 445.041358 303.554342 
L 449.562667 304.574933 
L 454.171086 305.652147 
L 458.815802 306.768198 
L 463.446 307.9053 
L 468.010864 309.045669 
L 472.45958 310.17152 
L 476.741333 311.265067 
L 480.805309 312.308525 
L 484.600691 313.284109 
L 488.076667 314.174033 
L 491.18242 314.960514 
L 493.867136 315.625764 
L 496.08 316.152 
" clip-path="url(#p4aee8ad04f)" style="fill: none; stroke: #ffffff; stroke-width: 6.2; stroke-linecap: round"/>
   </g>
   <g id="line2d_6">
    <path d="M 284.4 390.24 
L 285.263549 389.904622 
L 286.277728 389.595378 
L 287.429833 389.2992 
L 288.70716 389.003022 
L 290.097006 388.693778 
L 291.586667 388.3584 
L 293.163438 387.983822 
L 294.814617 387.556978 
L 296.5275 387.0648 
L 298.289383 386.494222 
L 300.087562 385.832178 
L 301.909333 385.0656 
L 303.741994 384.181422 
L 305.57284 383.166578 
L 307.389167 382.008 
L 309.178272 380.692622 
L 310.927451 379.207378 
L 312.624 377.5392 
L 314.290302 375.622816 
L 315.95842 373.423684 
L 317.630167 370.974833 
L 319.307358 368.309294 
L 320.991809 365.460095 
L 322.685333 362.460267 
L 324.389747 359.342838 
L 326.106864 356.14084 
L 327.8385 352.8873 
L 329.586469 349.615249 
L 331.352586 346.357717 
L 333.138667 343.147733 
L 334.946525 340.018327 
L 336.777975 337.002528 
L 338.634833 334.133367 
L 340.518914 331.443872 
L 342.432031 328.967073 
L 344.376 326.736 
L 346.352031 324.684231 
L 348.358914 322.722114 
L 350.394833 320.847833 
L 352.457975 319.059575 
L 354.546525 317.355525 
L 356.658667 315.733867 
L 358.792586 314.192786 
L 360.946469 312.730469 
L 363.1185 311.3451 
L 365.306864 310.034864 
L 367.509747 308.797947 
L 369.725333 307.632533 
L 371.951809 306.536809 
L 374.187358 305.508958 
L 376.430167 304.547167 
L 378.67842 303.64962 
L 380.930302 302.814502 
L 383.184 302.04 
L 385.407451 301.336215 
L 387.578272 300.713007 
L 389.709167 300.1682 
L 391.81284 299.699615 
L 393.901994 299.305074 
L 395.989333 298.9824 
L 398.087562 298.729415 
L 400.209383 298.543941 
L 402.3675 298.4238 
L 404.574617 298.366815 
L 406.843438 298.370807 
L 409.186667 298.4336 
L 411.617006 298.553015 
L 414.14716 298.726874 
L 416.789833 298.953 
L 419.557728 299.229215 
L 422.463549 299.553341 
L 425.52 299.9232 
L 428.843531 300.393902 
L 432.508247 301.010153 
L 436.463333 301.754167 
L 440.657975 302.608158 
L 445.041358 303.554342 
L 449.562667 304.574933 
L 454.171086 305.652147 
L 458.815802 306.768198 
L 463.446 307.9053 
L 468.010864 309.045669 
L 472.45958 310.17152 
L 476.741333 311.265067 
L 480.805309 312.308525 
L 484.600691 313.284109 
L 488.076667 314.174033 
L 491.18242 314.960514 
L 493.867136 315.625764 
L 496.08 316.152 
" clip-path="url(#p4aee8ad04f)" style="fill: none; stroke: #3468e8; stroke-width: 3; stroke-linecap: round"/>
   </g>
   <g id="patch_12">
    <path d="M 551.8224 350.0208 
L 602.6256 350.0208 
Q 608.976 350.0208 608.976 343.6704 
L 608.976 313.3296 
Q 608.976 306.9792 602.6256 306.9792 
L 551.8224 306.9792 
Q 545.472 306.9792 545.472 313.3296 
L 545.472 343.6704 
Q 545.472 350.0208 551.8224 350.0208 
z
" clip-path="url(#p4aee8ad04f)" style="fill: #dc4c4c; stroke: #102a3a; stroke-width: 1.1; stroke-linejoin: miter"/>
   </g>
   <g id="patch_13">
    <path d="M 472.45958 310.17152 
Q 484.26979 313.16176 492.828499 315.328749 
" clip-path="url(#p4aee8ad04f)" style="fill: none; stroke: #3468e8; stroke-width: 3; stroke-linecap: round"/>
    <path d="M 489.103075 312.116084 
L 492.828499 315.328749 
L 488.023113 316.381489 
z
" clip-path="url(#p4aee8ad04f)" style="fill: #3468e8; stroke: #3468e8; stroke-width: 3; stroke-linecap: round"/>
   </g>
   <g id="patch_14">
    <path d="M 559.584 357.0768 
C 561.6424 357.0768 563.616771 356.258989 565.07228 354.80348 
C 566.527789 353.347971 567.3456 351.3736 567.3456 349.3152 
C 567.3456 347.2568 566.527789 345.282429 565.07228 343.82692 
C 563.616771 342.371411 561.6424 341.5536 559.584 341.5536 
C 557.5256 341.5536 555.551229 342.371411 554.09572 343.82692 
C 552.640211 345.282429 551.8224 347.2568 551.8224 349.3152 
C 551.8224 351.3736 552.640211 353.347971 554.09572 354.80348 
C 555.551229 356.258989 557.5256 357.0768 559.584 357.0768 
z
" clip-path="url(#p4aee8ad04f)" style="fill: #102a3a; stroke: #ffffff; stroke-width: 0.6; stroke-linejoin: miter"/>
   </g>
   <g id="patch_15">
    <path d="M 594.864 357.0768 
C 596.9224 357.0768 598.896771 356.258989 600.35228 354.80348 
C 601.807789 353.347971 602.6256 351.3736 602.6256 349.3152 
C 602.6256 347.2568 601.807789 345.282429 600.35228 343.82692 
C 598.896771 342.371411 596.9224 341.5536 594.864 341.5536 
C 592.8056 341.5536 590.831229 342.371411 589.37572 343.82692 
C 587.920211 345.282429 587.1024 347.2568 587.1024 349.3152 
C 587.1024 351.3736 587.920211 353.347971 589.37572 354.80348 
C 590.831229 356.258989 592.8056 357.0768 594.864 357.0768 
z
" clip-path="url(#p4aee8ad04f)" style="fill: #102a3a; stroke: #ffffff; stroke-width: 0.6; stroke-linejoin: miter"/>
   </g>
   <g id="patch_16">
    <path d="M 175.032 150.336 
Q 246.2976 240.6528 276.891435 349.817167 
" clip-path="url(#p4aee8ad04f)" style="fill: none; stroke: #009c86; stroke-width: 1.5; stroke-linecap: round"/>
    <path d="M 277.737806 345.425851 
L 276.891435 349.817167 
L 273.886205 346.505281 
z
" clip-path="url(#p4aee8ad04f)" style="fill: #009c86; stroke: #009c86; stroke-width: 1.5; stroke-linecap: round"/>
   </g>
   <g id="patch_17">
    <path d="M 360.6048 150.336 
Q 366.2496 207.91296 382.693103 261.628404 
" clip-path="url(#p4aee8ad04f)" style="fill: none; stroke: #e4a321; stroke-width: 1.5; stroke-linecap: round"/>
    <path d="M 383.434646 257.218176 
L 382.693103 261.628404 
L 379.609846 258.389033 
z
" clip-path="url(#p4aee8ad04f)" style="fill: #e4a321; stroke: #e4a321; stroke-width: 1.5; stroke-linecap: round"/>
   </g>
   <g id="patch_18">
    <path d="M 563.112 150.336 
Q 523.2456 212.076 510.489874 282.749615 
" clip-path="url(#p4aee8ad04f)" style="fill: none; stroke: #dc4c4c; stroke-width: 1.5; stroke-linecap: round"/>
    <path d="M 513.168545 279.168453 
L 510.489874 282.749615 
L 509.232147 278.457981 
z
" clip-path="url(#p4aee8ad04f)" style="fill: #dc4c4c; stroke: #dc4c4c; stroke-width: 1.5; stroke-linecap: round"/>
   </g>
   <g id="patch_19">
    <path d="M 48.024 67.7808 
C 53.263565 67.7808 58.289236 65.699099 61.994167 61.994167 
C 65.699099 58.289236 67.7808 53.263565 67.7808 48.024 
C 67.7808 42.784435 65.699099 37.758764 61.994167 34.053833 
C 58.289236 30.348901 53.263565 28.2672 48.024 28.2672 
C 42.784435 28.2672 37.758764 30.348901 34.053833 34.053833 
C 30.348901 37.758764 28.2672 42.784435 28.2672 48.024 
C 28.2672 53.263565 30.348901 58.289236 34.053833 61.994167 
C 37.758764 65.699099 42.784435 67.7808 48.024 67.7808 
z
" clip-path="url(#p4aee8ad04f)" style="fill: #7257c8"/>
   </g>
   <g id="text_4">
    <text style="font-weight: 700; font-size: 10px; font-family: 'DejaVu Sans'; text-anchor: middle; fill: #ffffff" x="48.024" y="50.783375" transform="rotate(-0 48.024 50.783375)">4</text>
   </g>
   <g id="patch_20">
    <path d="M 284.4 425.52 
C 293.756365 425.52 302.730778 421.802677 309.346727 415.186727 
C 315.962677 408.570778 319.68 399.596365 319.68 390.24 
C 319.68 380.883635 315.962677 371.909222 309.346727 365.293273 
C 302.730778 358.677323 293.756365 354.96 284.4 354.96 
C 275.043635 354.96 266.069222 358.677323 259.453273 365.293273 
C 252.837323 371.909222 249.12 380.883635 249.12 390.24 
C 249.12 399.596365 252.837323 408.570778 259.453273 415.186727 
C 266.069222 421.802677 275.043635 425.52 284.4 425.52 
L 284.4 425.52 
z
" clip-path="url(#p4aee8ad04f)" style="fill: none; stroke: #009c86; stroke-width: 2; stroke-linejoin: miter"/>
   </g>
   <g id="patch_21">
    <path d="M 383.184 337.32 
C 392.540365 337.32 401.514778 333.602677 408.130727 326.986727 
C 414.746677 320.370778 418.464 311.396365 418.464 302.04 
C 418.464 292.683635 414.746677 283.709222 408.130727 277.093273 
C 401.514778 270.477323 392.540365 266.76 383.184 266.76 
C 373.827635 266.76 364.853222 270.477323 358.237273 277.093273 
C 351.621323 283.709222 347.904 292.683635 347.904 302.04 
C 347.904 311.396365 351.621323 320.370778 358.237273 326.986727 
C 364.853222 333.602677 373.827635 337.32 383.184 337.32 
L 383.184 337.32 
z
" clip-path="url(#p4aee8ad04f)" style="fill: none; stroke: #e4a321; stroke-width: 2; stroke-linejoin: miter"/>
   </g>
   <g id="patch_22">
    <path d="M 496.08 351.432 
C 505.436365 351.432 514.410778 347.714677 521.026727 341.098727 
C 527.642677 334.482778 531.36 325.508365 531.36 316.152 
C 531.36 306.795635 527.642677 297.821222 521.026727 291.205273 
C 514.410778 284.589323 505.436365 280.872 496.08 280.872 
C 486.723635 280.872 477.749222 284.589323 471.133273 291.205273 
C 464.517323 297.821222 460.8 306.795635 460.8 316.152 
C 460.8 325.508365 464.517323 334.482778 471.133273 341.098727 
C 477.749222 347.714677 486.723635 351.432 496.08 351.432 
L 496.08 351.432 
z
" clip-path="url(#p4aee8ad04f)" style="fill: none; stroke: #dc4c4c; stroke-width: 2; stroke-linejoin: miter"/>
   </g>
   <g id="line2d_7">
    <path d="M 284.4 390.24 
L 276.083727 408.074305 
" clip-path="url(#p4aee8ad04f)" style="fill: none; stroke: #102a3a; stroke-width: 1.276; stroke-linecap: round"/>
   </g>
   <g id="line2d_8">
    <path d="M 284.4 390.24 
L 266.565695 381.923727 
" clip-path="url(#p4aee8ad04f)" style="fill: none; stroke: #102a3a; stroke-width: 1.276; stroke-linecap: round"/>
   </g>
   <g id="line2d_9">
    <path d="M 284.4 390.24 
L 302.234305 398.556273 
" clip-path="url(#p4aee8ad04f)" style="fill: none; stroke: #102a3a; stroke-width: 1.276; stroke-linecap: round"/>
   </g>
   <g id="line2d_10">
    <path d="M 284.4 390.24 
L 292.716273 372.405695 
" clip-path="url(#p4aee8ad04f)" style="fill: none; stroke: #102a3a; stroke-width: 1.276; stroke-linecap: round"/>
   </g>
   <g id="line2d_11">
    <path d="M 383.184 302.04 
L 374.867727 319.874305 
" clip-path="url(#p4aee8ad04f)" style="fill: none; stroke: #102a3a; stroke-width: 1.276; stroke-linecap: round"/>
   </g>
   <g id="line2d_12">
    <path d="M 383.184 302.04 
L 365.349695 293.723727 
" clip-path="url(#p4aee8ad04f)" style="fill: none; stroke: #102a3a; stroke-width: 1.276; stroke-linecap: round"/>
   </g>
   <g id="line2d_13">
    <path d="M 383.184 302.04 
L 401.018305 310.356273 
" clip-path="url(#p4aee8ad04f)" style="fill: none; stroke: #102a3a; stroke-width: 1.276; stroke-linecap: round"/>
   </g>
   <g id="line2d_14">
    <path d="M 383.184 302.04 
L 391.500273 284.205695 
" clip-path="url(#p4aee8ad04f)" style="fill: none; stroke: #102a3a; stroke-width: 1.276; stroke-linecap: round"/>
   </g>
   <g id="line2d_15">
    <path d="M 496.08 316.152 
L 487.763727 333.986305 
" clip-path="url(#p4aee8ad04f)" style="fill: none; stroke: #102a3a; stroke-width: 1.276; stroke-linecap: round"/>
   </g>
   <g id="line2d_16">
    <path d="M 496.08 316.152 
L 478.245695 307.835727 
" clip-path="url(#p4aee8ad04f)" style="fill: none; stroke: #102a3a; stroke-width: 1.276; stroke-linecap: round"/>
   </g>
   <g id="line2d_17">
    <path d="M 496.08 316.152 
L 513.914305 324.468273 
" clip-path="url(#p4aee8ad04f)" style="fill: none; stroke: #102a3a; stroke-width: 1.276; stroke-linecap: round"/>
   </g>
   <g id="line2d_18">
    <path d="M 496.08 316.152 
L 504.396273 298.317695 
" clip-path="url(#p4aee8ad04f)" style="fill: none; stroke: #102a3a; stroke-width: 1.276; stroke-linecap: round"/>
   </g>
   <g id="patch_23">
    <path d="M 277.903351 413.07368 
C 279.229201 412.59111 280.309198 411.601475 280.905487 410.322729 
C 281.501776 409.043983 281.565672 407.580531 281.083102 406.254681 
C 280.600532 404.928832 279.610897 403.848834 278.332151 403.252545 
C 277.053405 402.656256 275.589953 402.59236 274.264103 403.07493 
C 272.938253 403.5575 271.858255 404.547135 271.261967 405.825881 
C 270.665678 407.104627 270.601782 408.568079 271.084352 409.893929 
C 271.566922 411.219779 272.556557 412.299777 273.835303 412.896066 
C 275.114049 413.492355 276.577501 413.55625 277.903351 413.07368 
z
" clip-path="url(#p4aee8ad04f)" style="fill: #ffffff; stroke: #102a3a; stroke-width: 0.986; stroke-linejoin: miter"/>
   </g>
   <g id="patch_24">
    <path d="M 268.385319 386.923102 
C 269.711168 386.440532 270.791166 385.450897 271.387455 384.172151 
C 271.983744 382.893405 272.04764 381.429953 271.56507 380.104103 
C 271.0825 378.778253 270.092865 377.698255 268.814119 377.101967 
C 267.535373 376.505678 266.071921 376.441782 264.746071 376.924352 
C 263.420221 377.406922 262.340223 378.396557 261.743934 379.675303 
C 261.147645 380.954049 261.08375 382.417501 261.56632 383.743351 
C 262.04889 385.069201 263.038525 386.149198 264.317271 386.745487 
C 265.596017 387.341776 267.059469 387.405672 268.385319 386.923102 
z
" clip-path="url(#p4aee8ad04f)" style="fill: #ffffff; stroke: #102a3a; stroke-width: 0.986; stroke-linejoin: miter"/>
   </g>
   <g id="patch_25">
    <path d="M 304.053929 403.555648 
C 305.379779 403.073078 306.459777 402.083443 307.056066 400.804697 
C 307.652355 399.525951 307.71625 398.062499 307.23368 396.736649 
C 306.75111 395.410799 305.761475 394.330802 304.482729 393.734513 
C 303.203983 393.138224 301.740531 393.074328 300.414681 393.556898 
C 299.088832 394.039468 298.008834 395.029103 297.412545 396.307849 
C 296.816256 397.586595 296.75236 399.050047 297.23493 400.375897 
C 297.7175 401.701747 298.707135 402.781745 299.985881 403.378033 
C 301.264627 403.974322 302.728079 404.038218 304.053929 403.555648 
z
" clip-path="url(#p4aee8ad04f)" style="fill: #ffffff; stroke: #102a3a; stroke-width: 0.986; stroke-linejoin: miter"/>
   </g>
   <g id="patch_26">
    <path d="M 294.535897 377.40507 
C 295.861747 376.9225 296.941745 375.932865 297.538033 374.654119 
C 298.134322 373.375373 298.198218 371.911921 297.715648 370.586071 
C 297.233078 369.260221 296.243443 368.180223 294.964697 367.583934 
C 293.685951 366.987645 292.222499 366.92375 290.896649 367.40632 
C 289.570799 367.88889 288.490802 368.878525 287.894513 370.157271 
C 287.298224 371.436017 287.234328 372.899469 287.716898 374.225319 
C 288.199468 375.551168 289.189103 376.631166 290.467849 377.227455 
C 291.746595 377.823744 293.210047 377.88764 294.535897 377.40507 
z
" clip-path="url(#p4aee8ad04f)" style="fill: #ffffff; stroke: #102a3a; stroke-width: 0.986; stroke-linejoin: miter"/>
   </g>
   <g id="patch_27">
    <path d="M 376.687351 324.87368 
C 378.013201 324.39111 379.093198 323.401475 379.689487 322.122729 
C 380.285776 320.843983 380.349672 319.380531 379.867102 318.054681 
C 379.384532 316.728832 378.394897 315.648834 377.116151 315.052545 
C 375.837405 314.456256 374.373953 314.39236 373.048103 314.87493 
C 371.722253 315.3575 370.642255 316.347135 370.045967 317.625881 
C 369.449678 318.904627 369.385782 320.368079 369.868352 321.693929 
C 370.350922 323.019779 371.340557 324.099777 372.619303 324.696066 
C 373.898049 325.292355 375.361501 325.35625 376.687351 324.87368 
z
" clip-path="url(#p4aee8ad04f)" style="fill: #ffffff; stroke: #102a3a; stroke-width: 0.986; stroke-linejoin: miter"/>
   </g>
   <g id="patch_28">
    <path d="M 367.169319 298.723102 
C 368.495168 298.240532 369.575166 297.250897 370.171455 295.972151 
C 370.767744 294.693405 370.83164 293.229953 370.34907 291.904103 
C 369.8665 290.578253 368.876865 289.498255 367.598119 288.901967 
C 366.319373 288.305678 364.855921 288.241782 363.530071 288.724352 
C 362.204221 289.206922 361.124223 290.196557 360.527934 291.475303 
C 359.931645 292.754049 359.86775 294.217501 360.35032 295.543351 
C 360.83289 296.869201 361.822525 297.949198 363.101271 298.545487 
C 364.380017 299.141776 365.843469 299.205672 367.169319 298.723102 
z
" clip-path="url(#p4aee8ad04f)" style="fill: #ffffff; stroke: #102a3a; stroke-width: 0.986; stroke-linejoin: miter"/>
   </g>
   <g id="patch_29">
    <path d="M 402.837929 315.355648 
C 404.163779 314.873078 405.243777 313.883443 405.840066 312.604697 
C 406.436355 311.325951 406.50025 309.862499 406.01768 308.536649 
C 405.53511 307.210799 404.545475 306.130802 403.266729 305.534513 
C 401.987983 304.938224 400.524531 304.874328 399.198681 305.356898 
C 397.872832 305.839468 396.792834 306.829103 396.196545 308.107849 
C 395.600256 309.386595 395.53636 310.850047 396.01893 312.175897 
C 396.5015 313.501747 397.491135 314.581745 398.769881 315.178033 
C 400.048627 315.774322 401.512079 315.838218 402.837929 315.355648 
z
" clip-path="url(#p4aee8ad04f)" style="fill: #ffffff; stroke: #102a3a; stroke-width: 0.986; stroke-linejoin: miter"/>
   </g>
   <g id="patch_30">
    <path d="M 393.319897 289.20507 
C 394.645747 288.7225 395.725745 287.732865 396.322033 286.454119 
C 396.918322 285.175373 396.982218 283.711921 396.499648 282.386071 
C 396.017078 281.060221 395.027443 279.980223 393.748697 279.383934 
C 392.469951 278.787645 391.006499 278.72375 389.680649 279.20632 
C 388.354799 279.68889 387.274802 280.678525 386.678513 281.957271 
C 386.082224 283.236017 386.018328 284.699469 386.500898 286.025319 
C 386.983468 287.351168 387.973103 288.431166 389.251849 289.027455 
C 390.530595 289.623744 391.994047 289.68764 393.319897 289.20507 
z
" clip-path="url(#p4aee8ad04f)" style="fill: #ffffff; stroke: #102a3a; stroke-width: 0.986; stroke-linejoin: miter"/>
   </g>
   <g id="patch_31">
    <path d="M 489.583351 338.98568 
C 490.909201 338.50311 491.989198 337.513475 492.585487 336.234729 
C 493.181776 334.955983 493.245672 333.492531 492.763102 332.166681 
C 492.280532 330.840832 491.290897 329.760834 490.012151 329.164545 
C 488.733405 328.568256 487.269953 328.50436 485.944103 328.98693 
C 484.618253 329.4695 483.538255 330.459135 482.941967 331.737881 
C 482.345678 333.016627 482.281782 334.480079 482.764352 335.805929 
C 483.246922 337.131779 484.236557 338.211777 485.515303 338.808066 
C 486.794049 339.404355 488.257501 339.46825 489.583351 338.98568 
z
" clip-path="url(#p4aee8ad04f)" style="fill: #ffffff; stroke: #102a3a; stroke-width: 0.986; stroke-linejoin: miter"/>
   </g>
   <g id="patch_32">
    <path d="M 480.065319 312.835102 
C 481.391168 312.352532 482.471166 311.362897 483.067455 310.084151 
C 483.663744 308.805405 483.72764 307.341953 483.24507 306.016103 
C 482.7625 304.690253 481.772865 303.610255 480.494119 303.013967 
C 479.215373 302.417678 477.751921 302.353782 476.426071 302.836352 
C 475.100221 303.318922 474.020223 304.308557 473.423934 305.587303 
C 472.827645 306.866049 472.76375 308.329501 473.24632 309.655351 
C 473.72889 310.981201 474.718525 312.061198 475.997271 312.657487 
C 477.276017 313.253776 478.739469 313.317672 480.065319 312.835102 
z
" clip-path="url(#p4aee8ad04f)" style="fill: #ffffff; stroke: #102a3a; stroke-width: 0.986; stroke-linejoin: miter"/>
   </g>
   <g id="patch_33">
    <path d="M 515.733929 329.467648 
C 517.059779 328.985078 518.139777 327.995443 518.736066 326.716697 
C 519.332355 325.437951 519.39625 323.974499 518.91368 322.648649 
C 518.43111 321.322799 517.441475 320.242802 516.162729 319.646513 
C 514.883983 319.050224 513.420531 318.986328 512.094681 319.468898 
C 510.768832 319.951468 509.688834 320.941103 509.092545 322.219849 
C 508.496256 323.498595 508.43236 324.962047 508.91493 326.287897 
C 509.3975 327.613747 510.387135 328.693745 511.665881 329.290033 
C 512.944627 329.886322 514.408079 329.950218 515.733929 329.467648 
z
" clip-path="url(#p4aee8ad04f)" style="fill: #ffffff; stroke: #102a3a; stroke-width: 0.986; stroke-linejoin: miter"/>
   </g>
   <g id="patch_34">
    <path d="M 506.215897 303.31707 
C 507.541747 302.8345 508.621745 301.844865 509.218033 300.566119 
C 509.814322 299.287373 509.878218 297.823921 509.395648 296.498071 
C 508.913078 295.172221 507.923443 294.092223 506.644697 293.495934 
C 505.365951 292.899645 503.902499 292.83575 502.576649 293.31832 
C 501.250799 293.80089 500.170802 294.790525 499.574513 296.069271 
C 498.978224 297.348017 498.914328 298.811469 499.396898 300.137319 
C 499.879468 301.463168 500.869103 302.543166 502.147849 303.139455 
C 503.426595 303.735744 504.890047 303.79964 506.215897 303.31707 
z
" clip-path="url(#p4aee8ad04f)" style="fill: #ffffff; stroke: #102a3a; stroke-width: 0.986; stroke-linejoin: miter"/>
   </g>
   <g id="patch_35">
    <path d="M 281.183098 397.823404 
L 291.738808 393.98144 
Q 294.815347 392.861672 293.695578 389.785133 
L 291.813209 384.613366 
Q 290.69344 381.536827 287.616902 382.656596 
L 277.061192 386.49856 
Q 273.984653 387.618328 275.104422 390.694867 
L 276.986791 395.866634 
Q 278.10656 398.943173 281.183098 397.823404 
z
" clip-path="url(#p4aee8ad04f)" style="fill: #102a3a; stroke: #ffffff; stroke-width: 0.8; stroke-linejoin: miter"/>
   </g>
   <g id="patch_36">
    <path d="M 379.967098 309.623404 
L 390.522808 305.78144 
Q 393.599347 304.661672 392.479578 301.585133 
L 390.597209 296.413366 
Q 389.47744 293.336827 386.400902 294.456596 
L 375.845192 298.29856 
Q 372.768653 299.418328 373.888422 302.494867 
L 375.770791 307.666634 
Q 376.89056 310.743173 379.967098 309.623404 
z
" clip-path="url(#p4aee8ad04f)" style="fill: #102a3a; stroke: #ffffff; stroke-width: 0.8; stroke-linejoin: miter"/>
   </g>
   <g id="patch_37">
    <path d="M 492.863098 323.735404 
L 503.418808 319.89344 
Q 506.495347 318.773672 505.375578 315.697133 
L 503.493209 310.525366 
Q 502.37344 307.448827 499.296902 308.568596 
L 488.741192 312.41056 
Q 485.664653 313.530328 486.784422 316.606867 
L 488.666791 321.778634 
Q 489.78656 324.855173 492.863098 323.735404 
z
" clip-path="url(#p4aee8ad04f)" style="fill: #102a3a; stroke: #ffffff; stroke-width: 0.8; stroke-linejoin: miter"/>
   </g>
   <g id="patch_38">
    <path d="M 284.4 390.24 
Q 294.221952 390.24 303.071214 390.24 
" clip-path="url(#p4aee8ad04f)" style="fill: none; stroke: #102a3a; stroke-width: 0.87; stroke-linecap: round"/>
    <path d="M 301.215214 389.312 
L 303.071214 390.24 
L 301.215214 391.168 
z
" clip-path="url(#p4aee8ad04f)" style="fill: #102a3a; stroke: #102a3a; stroke-width: 0.87; stroke-linecap: round"/>
   </g>
   <g id="patch_39">
    <path d="M 383.184 302.04 
Q 393.005952 302.04 401.855214 302.04 
" clip-path="url(#p4aee8ad04f)" style="fill: none; stroke: #102a3a; stroke-width: 0.87; stroke-linecap: round"/>
    <path d="M 399.999214 301.112 
L 401.855214 302.04 
L 399.999214 302.968 
z
" clip-path="url(#p4aee8ad04f)" style="fill: #102a3a; stroke: #102a3a; stroke-width: 0.87; stroke-linecap: round"/>
   </g>
   <g id="patch_40">
    <path d="M 496.08 316.152 
Q 505.901952 316.152 514.751214 316.152 
" clip-path="url(#p4aee8ad04f)" style="fill: none; stroke: #102a3a; stroke-width: 0.87; stroke-linecap: round"/>
    <path d="M 512.895214 315.224 
L 514.751214 316.152 
L 512.895214 317.08 
z
" clip-path="url(#p4aee8ad04f)" style="fill: #102a3a; stroke: #102a3a; stroke-width: 0.87; stroke-linecap: round"/>
   </g>
   <g id="patch_41">
    <path d="M 103.4136 150.336 
L 218.4264 150.336 
Q 231.1272 150.336 231.1272 137.6352 
L 231.1272 127.7568 
Q 231.1272 115.056 218.4264 115.056 
L 103.4136 115.056 
Q 90.7128 115.056 90.7128 127.7568 
L 90.7128 137.6352 
Q 90.7128 150.336 103.4136 150.336 
z
" clip-path="url(#p4aee8ad04f)" style="fill: #009c86"/>
   </g>
   <g id="patch_42">
    <path d="M 278.0496 150.336 
L 438.9264 150.336 
Q 451.6272 150.336 451.6272 137.6352 
L 451.6272 127.7568 
Q 451.6272 115.056 438.9264 115.056 
L 278.0496 115.056 
Q 265.3488 115.056 265.3488 127.7568 
L 265.3488 137.6352 
Q 265.3488 150.336 278.0496 150.336 
z
" clip-path="url(#p4aee8ad04f)" style="fill: #e4a321"/>
   </g>
   <g id="patch_43">
    <path d="M 482.6736 150.336 
L 657.6624 150.336 
Q 670.3632 150.336 670.3632 137.6352 
L 670.3632 127.7568 
Q 670.3632 115.056 657.6624 115.056 
L 482.6736 115.056 
Q 469.9728 115.056 469.9728 127.7568 
L 469.9728 137.6352 
Q 469.9728 150.336 482.6736 150.336 
z
" clip-path="url(#p4aee8ad04f)" style="fill: #dc4c4c"/>
   </g>
   <g id="patch_44">
    <path d="M 179.2656 474.912 
L 389.5344 474.912 
Q 402.2352 474.912 402.2352 462.2112 
L 402.2352 452.3328 
Q 402.2352 439.632 389.5344 439.632 
L 179.2656 439.632 
Q 166.5648 439.632 166.5648 452.3328 
L 166.5648 462.2112 
Q 166.5648 474.912 179.2656 474.912 
z
" clip-path="url(#p4aee8ad04f)" style="fill: #3468e8"/>
   </g>
   <g id="text_5">
    <text style="font-weight: 700; font-size: 8.8px; font-family: 'DejaVu Sans'; text-anchor: middle; fill: #ffffff" x="160.92" y="135.12425" transform="rotate(-0 160.92 135.12425)">SAM3 detects</text>
   </g>
   <g id="text_6">
    <text style="font-weight: 700; font-size: 8.7px; font-family: 'DejaVu Sans'; text-anchor: middle; fill: #102a3a" x="358.488" y="135.096656" transform="rotate(-0 358.488 135.096656)">MLLM scores context</text>
   </g>
   <g id="text_7">
    <text style="font-weight: 700; font-size: 8.7px; font-family: 'DejaVu Sans'; text-anchor: middle; fill: #ffffff" x="570.168" y="135.096656" transform="rotate(-0 570.168 135.096656)">within radius -&gt; STOP</text>
   </g>
   <g id="text_8">
    <text style="font-weight: 700; font-size: 8.7px; font-family: 'DejaVu Sans'; text-anchor: middle; fill: #ffffff" x="284.4" y="459.638672" transform="rotate(-0 284.4 459.638672)">planner override: get closer</text>
   </g>
  </g>
 </g>
 <defs>
  <clipPath id="p4aee8ad04f">
   <rect x="2.16" y="2.16" width="705.6" height="493.92"/>
  </clipPath>
 </defs>
</svg>
