<?xml version="1.0" encoding="utf-8" standalone="no"?>
<!DOCTYPE svg PUBLIC "-//W3C//DTD SVG 1.1//EN"
  "http://www.w3.org/Graphics/SVG/1.1/DTD/svg11.dtd">
<svg xmlns:xlink="http://www.w3.org/1999/xlink" width="709.92pt" height="498.24pt" viewBox="0 0 709.92 498.24" xmlns="http://www.w3.org/2000/svg" version="1.1">
 <metadata>
  <rdf:RDF xmlns:dc="http://purl.org/dc/elements/1.1/" xmlns:cc="http://creativecommons.org/ns#" xmlns:rdf="http://www.w3.org/1999/02/22-rdf-syntax-ns#">
   <cc:Work>
    <dc:type rdf:resource="http://purl.org/dc/dcmitype/StillImage"/>
    <dc:date>2026-07-18T19:03:10.653583</dc:date>
    <dc:format>image/svg+xml</dc:format>
    <dc:creator>
     <cc:Agent>
      <dc:title>Matplotlib v3.10.8, https://matplotlib.org/</dc:title>
     </cc:Agent>
    </dc:creator>
   </cc:Work>
  </rdf:RDF>
 </metadata>
 <defs>
  <style type="text/css">*{stroke-linejoin: round; stroke-linecap: butt}</style>
 </defs>
 <g id="figure_1">
  <g id="patch_1">
   <path d="M 0 498.24 
L 709.92 498.24 
L 709.92 0 
L 0 0 
z
" style="fill: #ffffff"/>
  </g>
  <g id="axes_1">
   <g id="patch_2">
    <path d="M 16.9776 493.9632 
L 692.9424 493.9632 
Q 705.6432 493.9632 705.6432 481.2624 
L 705.6432 16.9776 
Q 705.6432 4.2768 692.9424 4.2768 
L 16.9776 4.2768 
Q 4.2768 4.2768 4.2768 16.9776 
L 4.2768 481.2624 
Q 4.2768 493.9632 16.9776 493.9632 
z
" clip-path="url(#p4aee8ad04f)" style="fill: #f7f9fb; stroke: #d8e0e6; stroke-width: 1.2; stroke-linejoin: miter"/>
   </g>
   <g id="line2d_1">
    <path d="M 40.968 79.776 
L 668.952 79.776 
" clip-path="url(#p4aee8ad04f)" style="fill: none; stroke: #d8e0e6; stroke-linecap: square"/>
   </g>
   <g id="line2d_2">
    <path d="M 354.96 457.272 
L 354.96 104.472 
" clip-path="url(#p4aee8ad04f)" style="fill: none; stroke-dasharray: 3,3; stroke-dashoffset: 0; stroke: #d8e0e6"/>
   </g>
   <g id="patch_3">
    <path d="M 108 379.656 
L 175.032 143.28 
L 266.76 167.976 
z
" clip-path="url(#p4aee8ad04f)" style="fill: #009c86; opacity: 0.1"/>
   </g>
   <g id="text_1">
    <text style="font-weight: 700; font-size: 12.4px; font-family: 'DejaVu Sans'; text-anchor: start; fill: #102a3a" x="78.3648" y="50.740025" transform="rotate(-0 78.3648 50.740025)">Proactive and Reactive Collision Avoidance</text>
   </g>
   <g id="text_2">
    <text style="font-weight: 700; font-size: 10px; font-family: 'DejaVu Sans'; text-anchor: middle; fill: #009c86" x="185.616" y="107.231375" transform="rotate(-0 185.616 107.231375)">PROACTIVE</text>
   </g>
   <g id="text_3">
    <text style="font-weight: 700; font-size: 10px; font-family: 'DejaVu Sans'; text-anchor: middle; fill: #7257c8" x="534.888" y="107.231375" transform="rotate(-0 534.888 107.231375)">REACTIVE</text>
   </g>
   <g id="text_4">
    <text style="font-weight: 700; font-size: 9.2px; font-family: 'DejaVu Sans'; text-anchor: middle; fill: #405562" x="182.088" y="459.774688" transform="rotate(-0 182.088 459.774688)">search before committing</text>
   </g>
   <g id="text_5">
    <text style="font-weight: 700; font-size: 9px; font-family: 'DejaVu Sans'; text-anchor: middle; fill: #dc4c4c" x="577.224" y="260.070638" transform="rotate(-0 577.224 260.070638)">repel</text>
   </g>
   <g id="text_6">
    <text style="font-weight: 700; font-size: 9px; font-family: 'DejaVu Sans'; text-anchor: middle; fill: #009c86" x="425.52" y="195.155438" transform="rotate(-0 425.52 195.155438)">attract</text>
   </g>
   <g id="text_7">
    <text style="font-weight: 700; font-size: 9.2px; font-family: 'DejaVu Sans'; text-anchor: middle; fill: #405562" x="534.888" y="459.810625" transform="rotate(-0 534.888 459.810625)">correct near obstacles</text>
   </g>
   <g id="patch_4">
    <path d="M 111.528 381.7728 
Q 206.784 368.3664 300.60074 355.162562 
" clip-path="url(#p4aee8ad04f)" style="fill: none; stroke-dasharray: 3.9,3.9; stroke-dashoffset: 0; stroke: #c8d0d7; stroke-width: 1.3; stroke-linecap: round"/>
    <path d="M 297.208982 354.024152 
L 300.60074 355.162562 
L 297.654957 357.192923 
z
" clip-path="url(#p4aee8ad04f)" style="fill: #c8d0d7; stroke-dasharray: 3.9,3.9; stroke-dashoffset: 0; stroke: #c8d0d7; stroke-width: 1.3; stroke-linecap: round"/>
   </g>
   <g id="patch_5">
    <path d="M 111.528 381.7728 
Q 201.492 329.5584 290.198939 278.073588 
" clip-path="url(#p4aee8ad04f)" style="fill: none; stroke-dasharray: 3.9,3.9; stroke-dashoffset: 0; stroke: #c8d0d7; stroke-width: 1.3; stroke-linecap: round"/>
    <path d="M 286.628156 278.296084 
L 290.198939 278.073588 
L 288.234466 281.063712 
z
" clip-path="url(#p4aee8ad04f)" style="fill: #c8d0d7; stroke-dasharray: 3.9,3.9; stroke-dashoffset: 0; stroke: #c8d0d7; stroke-width: 1.3; stroke-linecap: round"/>
   </g>
   <g id="patch_6">
    <path d="M 111.528 381.7728 
Q 185.616 274.8744 258.87607 169.170585 
" clip-path="url(#p4aee8ad04f)" style="fill: none; stroke-dasharray: 3.9,3.9; stroke-dashoffset: 0; stroke: #c8d0d7; stroke-width: 1.3; stroke-linecap: round"/>
    <path d="M 255.738206 170.889249 
L 258.87607 169.170585 
L 258.368283 172.712075 
z
" clip-path="url(#p4aee8ad04f)" style="fill: #c8d0d7; stroke-dasharray: 3.9,3.9; stroke-dashoffset: 0; stroke: #c8d0d7; stroke-width: 1.3; stroke-linecap: round"/>
   </g>
   <g id="patch_7">
    <path d="M 217.368 344.376 
L 284.4 344.376 
L 284.4 235.008 
L 217.368 235.008 
z
" clip-path="url(#p4aee8ad04f)" style="fill: #bd4141; stroke: #102a3a; stroke-width: 0.85; stroke-linejoin: miter"/>
   </g>
   <g id="patch_8">
    <path d="M 591.336 393.768 
L 649.1952 393.768 
L 649.1952 293.5728 
L 591.336 293.5728 
z
" clip-path="url(#p4aee8ad04f)" style="fill: #bd4141; stroke: #102a3a; stroke-width: 0.85; stroke-linejoin: miter"/>
   </g>
   <g id="patch_9">
    <path d="M 439.632 188.4384 
C 445.994328 188.4384 452.096929 185.91062 456.595775 181.411775 
C 461.09462 176.912929 463.6224 170.810328 463.6224 164.448 
C 463.6224 158.085672 461.09462 151.983071 456.595775 147.484225 
C 452.096929 142.98538 445.994328 140.4576 439.632 140.4576 
C 433.269672 140.4576 427.167071 142.98538 422.668225 147.484225 
C 418.16938 151.983071 415.6416 158.085672 415.6416 164.448 
C 415.6416 170.810328 418.16938 176.912929 422.668225 181.411775 
C 427.167071 185.91062 433.269672 188.4384 439.632 188.4384 
z
" clip-path="url(#p4aee8ad04f)" style="fill: #009c86; stroke: #102a3a; stroke-linejoin: miter"/>
   </g>
   <g id="patch_10">
    <path d="M 284.4 344.376 
L 304.1568 324.6192 
L 304.1568 215.2512 
L 284.4 235.008 
z
" clip-path="url(#p4aee8ad04f)" style="fill: #963434; stroke: #102a3a; stroke-width: 0.85; stroke-linejoin: miter"/>
   </g>
   <g id="patch_11">
    <path d="M 649.1952 393.768 
L 666.8352 376.128 
L 666.8352 275.9328 
L 649.1952 293.5728 
z
" clip-path="url(#p4aee8ad04f)" style="fill: #963434; stroke: #102a3a; stroke-width: 0.85; stroke-linejoin: miter"/>
   </g>
   <g id="patch_12">
    <path d="M 439.632 173.6208 
C 442.064655 173.6208 444.398002 172.654296 446.118149 170.934149 
C 447.838296 169.214002 448.8048 166.880655 448.8048 164.448 
C 448.8048 162.015345 447.838296 159.681998 446.118149 157.961851 
C 444.398002 156.241704 442.064655 155.2752 439.632 155.2752 
C 437.199345 155.2752 434.865998 156.241704 433.145851 157.961851 
C 431.425704 159.681998 430.4592 162.015345 430.4592 164.448 
C 430.4592 166.880655 431.425704 169.214002 433.145851 170.934149 
C 434.865998 172.654296 437.199345 173.6208 439.632 173.6208 
z
" clip-path="url(#p4aee8ad04f)" style="fill: #ffffff"/>
   </g>
   <g id="patch_13">
    <path d="M 217.368 235.008 
L 284.4 235.008 
L 304.1568 215.2512 
L 237.1248 215.2512 
z
" clip-path="url(#p4aee8ad04f)" style="fill: #ee5252; stroke: #102a3a; stroke-width: 0.85; stroke-linejoin: miter"/>
   </g>
   <g id="patch_14">
    <path d="M 591.336 293.5728 
L 649.1952 293.5728 
L 666.8352 275.9328 
L 608.976 275.9328 
z
" clip-path="url(#p4aee8ad04f)" style="fill: #ee5252; stroke: #102a3a; stroke-width: 0.85; stroke-linejoin: miter"/>
   </g>
   <g id="patch_15">
    <path d="M 108 379.656 
Q 143.70336 263.5848 211.709123 167.459954 
" clip-path="url(#p4aee8ad04f)" style="fill: none; stroke: #009c86; stroke-width: 3.3; stroke-linecap: round"/>
    <path d="M 206.58334 170.203373 
L 211.709123 167.459954 
L 210.828389 173.206631 
z
" clip-path="url(#p4aee8ad04f)" style="fill: #009c86; stroke: #009c86; stroke-width: 3.3; stroke-linecap: round"/>
   </g>
   <g id="patch_16">
    <path d="M 591.336 325.3248 
Q 565.5816 325.3248 542.510482 325.3248 
" clip-path="url(#p4aee8ad04f)" style="fill: none; stroke: #dc4c4c; stroke-width: 2.4; stroke-linecap: round"/>
    <path d="M 547.310482 327.7248 
L 542.510482 325.3248 
L 547.310482 322.9248 
z
" clip-path="url(#p4aee8ad04f)" style="fill: #dc4c4c; stroke: #dc4c4c; stroke-width: 2.4; stroke-linecap: round"/>
   </g>
   <g id="patch_17">
    <path d="M 499.608 311.2128 
Q 474.2064 250.1784 449.835815 191.621299 
" clip-path="url(#p4aee8ad04f)" style="fill: none; stroke: #009c86; stroke-width: 2.4; stroke-linecap: round"/>
    <path d="M 449.464386 196.974993 
L 449.835815 191.621299 
L 453.895913 195.130658 
z
" clip-path="url(#p4aee8ad04f)" style="fill: #009c86; stroke: #009c86; stroke-width: 2.4; stroke-linecap: round"/>
   </g>
   <g id="patch_18">
    <path d="M 520.776 306.9792 
Q 483.887232 271.41696 442.915192 247.507894 
" clip-path="url(#p4aee8ad04f)" style="fill: none; stroke: #7257c8; stroke-width: 3.4; stroke-linecap: round"/>
    <path d="M 446.340684 252.748696 
L 442.915192 247.507894 
L 449.163129 247.911981 
z
" clip-path="url(#p4aee8ad04f)" style="fill: #7257c8; stroke: #7257c8; stroke-width: 3.4; stroke-linecap: round"/>
   </g>
   <g id="patch_19">
    <path d="M 48.024 67.7808 
C 53.263565 67.7808 58.289236 65.699099 61.994167 61.994167 
C 65.699099 58.289236 67.7808 53.263565 67.7808 48.024 
C 67.7808 42.784435 65.699099 37.758764 61.994167 34.053833 
C 58.289236 30.348901 53.263565 28.2672 48.024 28.2672 
C 42.784435 28.2672 37.758764 30.348901 34.053833 34.053833 
C 30.348901 37.758764 28.2672 42.784435 28.2672 48.024 
C 28.2672 53.263565 30.348901 58.289236 34.053833 61.994167 
C 37.758764 65.699099 42.784435 67.7808 48.024 67.7808 
z
" clip-path="url(#p4aee8ad04f)" style="fill: #009c86"/>
   </g>
   <g id="text_8">
    <text style="font-weight: 700; font-size: 10px; font-family: 'DejaVu Sans'; text-anchor: middle; fill: #ffffff" x="48.024" y="50.783375" transform="rotate(-0 48.024 50.783375)">2</text>
   </g>
   <g id="line2d_3">
    <path d="M 83.304 400.824 
L 73.553887 421.733185 
" clip-path="url(#p4aee8ad04f)" style="fill: none; stroke: #102a3a; stroke-width: 1.496; stroke-linecap: round"/>
   </g>
   <g id="line2d_4">
    <path d="M 83.304 400.824 
L 62.394815 391.073887 
" clip-path="url(#p4aee8ad04f)" style="fill: none; stroke: #102a3a; stroke-width: 1.496; stroke-linecap: round"/>
   </g>
   <g id="line2d_5">
    <path d="M 83.304 400.824 
L 104.213185 410.574113 
" clip-path="url(#p4aee8ad04f)" style="fill: none; stroke: #102a3a; stroke-width: 1.496; stroke-linecap: round"/>
   </g>
   <g id="line2d_6">
    <path d="M 83.304 400.824 
L 93.054113 379.914815 
" clip-path="url(#p4aee8ad04f)" style="fill: none; stroke: #102a3a; stroke-width: 1.496; stroke-linecap: round"/>
   </g>
   <g id="line2d_7">
    <path d="M 520.776 337.32 
L 509.685995 359.085361 
" clip-path="url(#p4aee8ad04f)" style="fill: none; stroke: #102a3a; stroke-width: 1.584; stroke-linecap: round"/>
   </g>
   <g id="line2d_8">
    <path d="M 520.776 337.32 
L 499.010639 326.229995 
" clip-path="url(#p4aee8ad04f)" style="fill: none; stroke: #102a3a; stroke-width: 1.584; stroke-linecap: round"/>
   </g>
   <g id="line2d_9">
    <path d="M 520.776 337.32 
L 542.541361 348.410005 
" clip-path="url(#p4aee8ad04f)" style="fill: none; stroke: #102a3a; stroke-width: 1.584; stroke-linecap: round"/>
   </g>
   <g id="line2d_10">
    <path d="M 520.776 337.32 
L 531.866005 315.554639 
" clip-path="url(#p4aee8ad04f)" style="fill: none; stroke: #102a3a; stroke-width: 1.584; stroke-linecap: round"/>
   </g>
   <g id="patch_20">
    <path d="M 75.687239 427.594522 
C 77.241683 427.02875 78.507888 425.868488 79.206985 424.369268 
C 79.906083 422.870049 79.980995 421.154278 79.415223 419.599833 
C 78.849452 418.045389 77.689189 416.779184 76.18997 416.080087 
C 74.690751 415.380989 72.974979 415.306077 71.420535 415.871849 
C 69.86609 416.43762 68.599886 417.597883 67.900788 419.097102 
C 67.201691 420.596321 67.126779 422.312093 67.69255 423.866537 
C 68.258322 425.420982 69.418584 426.687186 70.917804 427.386284 
C 72.417023 428.085381 74.132794 428.160293 75.687239 427.594522 
z
" clip-path="url(#p4aee8ad04f)" style="fill: #ffffff; stroke: #102a3a; stroke-width: 1.156; stroke-linejoin: miter"/>
   </g>
   <g id="patch_21">
    <path d="M 64.528167 396.935223 
C 66.082611 396.369452 67.348816 395.209189 68.047913 393.70997 
C 68.747011 392.210751 68.821923 390.494979 68.256151 388.940535 
C 67.69038 387.38609 66.530117 386.119886 65.030898 385.420788 
C 63.531679 384.721691 61.815907 384.646779 60.261463 385.21255 
C 58.707018 385.778322 57.440814 386.938584 56.741716 388.437804 
C 56.042619 389.937023 55.967707 391.652794 56.533478 393.207239 
C 57.09925 394.761683 58.259512 396.027888 59.758732 396.726985 
C 61.257951 397.426083 62.973722 397.500995 64.528167 396.935223 
z
" clip-path="url(#p4aee8ad04f)" style="fill: #ffffff; stroke: #102a3a; stroke-width: 1.156; stroke-linejoin: miter"/>
   </g>
   <g id="patch_22">
    <path d="M 106.346537 416.43545 
C 107.900982 415.869678 109.167186 414.709416 109.866284 413.210196 
C 110.565381 411.710977 110.640293 409.995206 110.074522 408.440761 
C 109.50875 406.886317 108.348488 405.620112 106.849268 404.921015 
C 105.350049 404.221917 103.634278 404.147005 102.079833 404.712777 
C 100.525389 405.278548 99.259184 406.438811 98.560087 407.93803 
C 97.860989 409.437249 97.786077 411.153021 98.351849 412.707465 
C 98.91762 414.26191 100.077883 415.528114 101.577102 416.227212 
C 103.076321 416.926309 104.792093 417.001221 106.346537 416.43545 
z
" clip-path="url(#p4aee8ad04f)" style="fill: #ffffff; stroke: #102a3a; stroke-width: 1.156; stroke-linejoin: miter"/>
   </g>
   <g id="patch_23">
    <path d="M 95.187465 385.776151 
C 96.74191 385.21038 98.008114 384.050117 98.707212 382.550898 
C 99.406309 381.051679 99.481221 379.335907 98.91545 377.781463 
C 98.349678 376.227018 97.189416 374.960814 95.690196 374.261716 
C 94.190977 373.562619 92.475206 373.487707 90.920761 374.053478 
C 89.366317 374.61925 88.100112 375.779512 87.401015 377.278732 
C 86.701917 378.777951 86.627005 380.493722 87.192777 382.048167 
C 87.758548 383.602611 88.918811 384.868816 90.41803 385.567913 
C 91.917249 386.267011 93.633021 386.341923 95.187465 385.776151 
z
" clip-path="url(#p4aee8ad04f)" style="fill: #ffffff; stroke: #102a3a; stroke-width: 1.156; stroke-linejoin: miter"/>
   </g>
   <g id="patch_24">
    <path d="M 511.726872 365.366534 
C 513.392658 364.825287 514.775403 363.644311 515.570573 362.083703 
C 516.365742 360.523094 516.508415 358.71027 515.967168 357.044484 
C 515.425921 355.378697 514.244945 353.995953 512.684337 353.200783 
C 511.123729 352.405613 509.310905 352.262941 507.645118 352.804188 
C 505.979332 353.345435 504.596587 354.52641 503.801417 356.087019 
C 503.006247 357.647627 502.863575 359.460451 503.404822 361.126237 
C 503.946069 362.792024 505.127044 364.174769 506.687653 364.969938 
C 508.248261 365.765108 510.061085 365.90778 511.726872 365.366534 
z
" clip-path="url(#p4aee8ad04f)" style="fill: #ffffff; stroke: #102a3a; stroke-width: 1.224; stroke-linejoin: miter"/>
   </g>
   <g id="patch_25">
    <path d="M 501.051516 332.511168 
C 502.717303 331.969921 504.100047 330.788945 504.895217 329.228337 
C 505.690387 327.667729 505.833059 325.854905 505.291812 324.189118 
C 504.750565 322.523332 503.56959 321.140587 502.008981 320.345417 
C 500.448373 319.550247 498.635549 319.407575 496.969763 319.948822 
C 495.303976 320.490069 493.921231 321.671044 493.126062 323.231653 
C 492.330892 324.792261 492.18822 326.605085 492.729466 328.270872 
C 493.270713 329.936658 494.451689 331.319403 496.012297 332.114573 
C 497.572906 332.909742 499.38573 333.052415 501.051516 332.511168 
z
" clip-path="url(#p4aee8ad04f)" style="fill: #ffffff; stroke: #102a3a; stroke-width: 1.224; stroke-linejoin: miter"/>
   </g>
   <g id="patch_26">
    <path d="M 544.582237 354.691178 
C 546.248024 354.149931 547.630769 352.968956 548.425938 351.408347 
C 549.221108 349.847739 549.36378 348.034915 548.822534 346.369128 
C 548.281287 344.703342 547.100311 343.320597 545.539703 342.525427 
C 543.979094 341.730258 542.16627 341.587585 540.500484 342.128832 
C 538.834697 342.670079 537.451953 343.851055 536.656783 345.411663 
C 535.861613 346.972271 535.718941 348.785095 536.260188 350.450882 
C 536.801435 352.116668 537.98241 353.499413 539.543019 354.294583 
C 541.103627 355.089753 542.916451 355.232425 544.582237 354.691178 
z
" clip-path="url(#p4aee8ad04f)" style="fill: #ffffff; stroke: #102a3a; stroke-width: 1.224; stroke-linejoin: miter"/>
   </g>
   <g id="patch_27">
    <path d="M 533.906882 321.835812 
C 535.572668 321.294565 536.955413 320.11359 537.750583 318.552981 
C 538.545753 316.992373 538.688425 315.179549 538.147178 313.513763 
C 537.605931 311.847976 536.424956 310.465231 534.864347 309.670062 
C 533.303739 308.874892 531.490915 308.73222 529.825128 309.273466 
C 528.159342 309.814713 526.776597 310.995689 525.981427 312.556297 
C 525.186258 314.116906 525.043585 315.92973 525.584832 317.595516 
C 526.126079 319.261303 527.307055 320.644047 528.867663 321.439217 
C 530.428271 322.234387 532.241095 322.377059 533.906882 321.835812 
z
" clip-path="url(#p4aee8ad04f)" style="fill: #ffffff; stroke: #102a3a; stroke-width: 1.224; stroke-linejoin: miter"/>
   </g>
   <g id="patch_28">
    <path d="M 79.60517 409.558961 
L 91.752193 405.137806 
Q 95.359169 403.824974 94.046337 400.217998 
L 91.922638 394.383183 
Q 90.609806 390.776207 87.00283 392.089039 
L 74.855807 396.510194 
Q 71.248831 397.823026 72.561663 401.430002 
L 74.685362 407.264817 
Q 75.998194 410.871793 79.60517 409.558961 
z
" clip-path="url(#p4aee8ad04f)" style="fill: #102a3a; stroke: #ffffff; stroke-width: 0.8; stroke-linejoin: miter"/>
   </g>
   <g id="patch_29">
    <path d="M 516.565848 346.374167 
L 529.50399 342.17031 
Q 533.369328 340.914386 532.113403 337.049048 
L 530.107413 330.875246 
Q 528.851489 327.009909 524.986152 328.265833 
L 512.04801 332.46969 
Q 508.182672 333.725614 509.438597 337.590952 
L 511.444587 343.764754 
Q 512.700511 347.630091 516.565848 346.374167 
z
" clip-path="url(#p4aee8ad04f)" style="fill: #102a3a; stroke: #ffffff; stroke-width: 0.8; stroke-linejoin: miter"/>
   </g>
   <g id="patch_30">
    <path d="M 83.304 400.824 
Q 94.819392 400.824 105.194389 400.824 
" clip-path="url(#p4aee8ad04f)" style="fill: none; stroke: #102a3a; stroke-width: 1.02; stroke-linecap: round"/>
    <path d="M 103.018389 399.736 
L 105.194389 400.824 
L 103.018389 401.912 
z
" clip-path="url(#p4aee8ad04f)" style="fill: #102a3a; stroke: #102a3a; stroke-width: 1.02; stroke-linecap: round"/>
   </g>
   <g id="patch_31">
    <path d="M 520.776 337.32 
Q 532.968768 337.32 543.954059 337.32 
" clip-path="url(#p4aee8ad04f)" style="fill: none; stroke: #102a3a; stroke-width: 1.08; stroke-linecap: round"/>
    <path d="M 541.650059 336.168 
L 543.954059 337.32 
L 541.650059 338.472 
z
" clip-path="url(#p4aee8ad04f)" style="fill: #102a3a; stroke: #102a3a; stroke-width: 1.08; stroke-linecap: round"/>
   </g>
   <g id="patch_32">
    <path d="M 156.3336 167.976 
L 264.2904 167.976 
Q 276.9912 167.976 276.9912 155.2752 
L 276.9912 145.3968 
Q 276.9912 132.696 264.2904 132.696 
L 156.3336 132.696 
Q 143.6328 132.696 143.6328 145.3968 
L 143.6328 155.2752 
Q 143.6328 167.976 156.3336 167.976 
z
" clip-path="url(#p4aee8ad04f)" style="fill: #009c86"/>
   </g>
   <g id="patch_33">
    <path d="M 382.1256 235.008 
L 532.4184 235.008 
Q 545.1192 235.008 545.1192 222.3072 
L 545.1192 212.4288 
Q 545.1192 199.728 532.4184 199.728 
L 382.1256 199.728 
Q 369.4248 199.728 369.4248 212.4288 
L 369.4248 222.3072 
Q 369.4248 235.008 382.1256 235.008 
z
" clip-path="url(#p4aee8ad04f)" style="fill: #7257c8"/>
   </g>
   <g id="text_9">
    <text style="font-weight: 700; font-size: 8.8px; font-family: 'DejaVu Sans'; text-anchor: middle; fill: #ffffff" x="210.312" y="152.76425" transform="rotate(-0 210.312 152.76425)">clear volume</text>
   </g>
   <g id="text_10">
    <text style="font-weight: 700; font-size: 8.7px; font-family: 'DejaVu Sans'; text-anchor: middle; fill: #ffffff" x="457.272" y="219.768656" transform="rotate(-0 457.272 219.768656)">resultant direction</text>
   </g>
  </g>
 </g>
 <defs>
  <clipPath id="p4aee8ad04f">
   <rect x="2.16" y="2.16" width="705.6" height="493.92"/>
  </clipPath>
 </defs>
</svg>
