<?xml version="1.0" encoding="utf-8" standalone="no"?>
<!DOCTYPE svg PUBLIC "-//W3C//DTD SVG 1.1//EN"
  "http://www.w3.org/Graphics/SVG/1.1/DTD/svg11.dtd">
<svg xmlns:xlink="http://www.w3.org/1999/xlink" width="431.982162pt" height="560.043813pt" viewBox="0 0 431.982162 560.043813" xmlns="http://www.w3.org/2000/svg" version="1.1">
 <metadata>
  <rdf:RDF xmlns:dc="http://purl.org/dc/elements/1.1/" xmlns:cc="http://creativecommons.org/ns#" xmlns:rdf="http://www.w3.org/1999/02/22-rdf-syntax-ns#">
   <cc:Work>
    <dc:type rdf:resource="http://purl.org/dc/dcmitype/StillImage"/>
    <dc:date>2026-07-20T11:30:38.251265</dc:date>
    <dc:format>image/svg+xml</dc:format>
    <dc:creator>
     <cc:Agent>
      <dc:title>Matplotlib v3.10.8, https://matplotlib.org/</dc:title>
     </cc:Agent>
    </dc:creator>
   </cc:Work>
  </rdf:RDF>
 </metadata>
 <defs>
  <style type="text/css">*{stroke-linejoin: round; stroke-linecap: butt}</style>
 </defs>
 <g id="figure_1">
  <g id="patch_1">
   <path d="M 0 560.043813 
L 431.982162 560.043813 
L 431.982162 0 
L 0 0 
z
" style="fill: #ffffff"/>
  </g>
  <g id="patch_2">
   <path d="M 37.623762 551.4912 
L 422.852562 551.4912 
Q 428.382162 551.4912 428.382162 544.4064 
L 428.382162 17.7696 
Q 428.382162 10.6848 422.852562 10.6848 
L 37.623762 10.6848 
Q 32.094162 10.6848 32.094162 17.7696 
L 32.094162 544.4064 
Q 32.094162 551.4912 37.623762 551.4912 
z
" style="fill: #f7f9fb; stroke: #d9e1e7; stroke-linejoin: miter"/>
  </g>
  <g id="axes_1">
   <g id="patch_3">
    <path d="M 41.310163 249.899478 
L 419.166162 249.899478 
L 419.166162 41.976 
L 41.310163 41.976 
L 41.310163 249.899478 
z
" style="fill: none"/>
   </g>
   <g id="matplotlib.axis_1">
    <g id="xtick_1">
     <g id="line2d_1"/>
     <g id="text_1">
      <text style="font-size: 12.88px; font-family: 'DejaVu Sans'; text-anchor: end; fill: #66727d" x="86.947004" y="262.26932" transform="rotate(-25 86.947004 262.26932)">CMA</text>
     </g>
    </g>
    <g id="xtick_2">
     <g id="line2d_2"/>
     <g id="text_2">
      <text style="font-size: 12.88px; font-family: 'DejaVu Sans'; text-anchor: end; fill: #d97706" x="160.660621" y="262.26932" transform="rotate(-25 160.660621 262.26932)">TravelUAV</text>
     </g>
    </g>
    <g id="xtick_3">
     <g id="line2d_3"/>
     <g id="text_3">
      <text style="font-size: 12.88px; font-family: 'DejaVu Sans'; text-anchor: end; fill: #0f8a70" x="234.374238" y="262.26932" transform="rotate(-25 234.374238 262.26932)">NavFoM</text>
     </g>
    </g>
    <g id="xtick_4">
     <g id="line2d_4"/>
     <g id="text_4">
      <text style="font-size: 12.88px; font-family: 'DejaVu Sans'; text-anchor: end; fill: #b64e8b" x="308.087854" y="262.26932" transform="rotate(-25 308.087854 262.26932)">LongFly</text>
     </g>
    </g>
    <g id="xtick_5">
     <g id="line2d_5"/>
     <g id="text_5">
      <text style="font-weight: 700; font-size: 12.88px; font-family: 'DejaVu Sans'; text-anchor: end; fill: #2563eb" x="381.801471" y="262.26932" transform="rotate(-25 381.801471 262.26932)">AeroLANCE</text>
     </g>
    </g>
   </g>
   <g id="matplotlib.axis_2">
    <g id="ytick_1">
     <g id="line2d_6">
      <path d="M 41.310163 249.899478 
L 419.166162 249.899478 
" clip-path="url(#pac35856398)" style="fill: none; stroke: #d9e1e7; stroke-opacity: 0.8; stroke-width: 0.8; stroke-linecap: square"/>
     </g>
     <g id="line2d_7"/>
     <g id="text_6">
      <text style="font-size: 12.88px; font-family: 'DejaVu Sans'; text-anchor: end; fill: #687985" x="37.810163" y="254.792872" transform="rotate(-0 37.810163 254.792872)">0</text>
     </g>
    </g>
    <g id="ytick_2">
     <g id="line2d_8">
      <path d="M 41.310163 188.745514 
L 419.166162 188.745514 
" clip-path="url(#pac35856398)" style="fill: none; stroke: #d9e1e7; stroke-opacity: 0.8; stroke-width: 0.8; stroke-linecap: square"/>
     </g>
     <g id="line2d_9"/>
     <g id="text_7">
      <text style="font-size: 12.88px; font-family: 'DejaVu Sans'; text-anchor: end; fill: #687985" x="37.810163" y="193.638908" transform="rotate(-0 37.810163 193.638908)">20</text>
     </g>
    </g>
    <g id="ytick_3">
     <g id="line2d_10">
      <path d="M 41.310163 127.59155 
L 419.166162 127.59155 
" clip-path="url(#pac35856398)" style="fill: none; stroke: #d9e1e7; stroke-opacity: 0.8; stroke-width: 0.8; stroke-linecap: square"/>
     </g>
     <g id="line2d_11"/>
     <g id="text_8">
      <text style="font-size: 12.88px; font-family: 'DejaVu Sans'; text-anchor: end; fill: #687985" x="37.810163" y="132.484944" transform="rotate(-0 37.810163 132.484944)">40</text>
     </g>
    </g>
    <g id="ytick_4">
     <g id="line2d_12">
      <path d="M 41.310163 66.437586 
L 419.166162 66.437586 
" clip-path="url(#pac35856398)" style="fill: none; stroke: #d9e1e7; stroke-opacity: 0.8; stroke-width: 0.8; stroke-linecap: square"/>
     </g>
     <g id="line2d_13"/>
     <g id="text_9">
      <text style="font-size: 12.88px; font-family: 'DejaVu Sans'; text-anchor: end; fill: #687985" x="37.810163" y="71.330979" transform="rotate(-0 37.810163 71.330979)">60</text>
     </g>
    </g>
    <g id="text_10">
     <text style="font-size: 14.28px; font-family: 'DejaVu Sans'; text-anchor: middle; fill: #344652" x="14.450569" y="145.937739" transform="rotate(-90 14.450569 145.937739)">Success Rate (%)</text>
    </g>
   </g>
   <g id="patch_4">
    <path d="M 41.310163 249.899478 
L 41.310163 41.976 
" style="fill: none; stroke: #aab7c0; stroke-width: 0.9; stroke-linejoin: miter; stroke-linecap: square"/>
   </g>
   <g id="patch_5">
    <path d="M 41.310162 249.899478 
L 419.166163 249.899478 
" style="fill: none; stroke: #aab7c0; stroke-width: 0.9; stroke-linejoin: miter; stroke-linecap: square"/>
   </g>
   <g id="patch_6">
    <path d="M 58.485435 249.899478 
L 107.136422 249.899478 
L 107.136422 242.866772 
L 58.485435 242.866772 
z
" clip-path="url(#pac35856398)" style="fill: #66727d"/>
   </g>
   <g id="patch_7">
    <path d="M 132.199052 249.899478 
L 180.850039 249.899478 
L 180.850039 237.057146 
L 132.199052 237.057146 
z
" clip-path="url(#pac35856398)" style="fill: #d97706"/>
   </g>
   <g id="patch_8">
    <path d="M 205.912669 249.899478 
L 254.563656 249.899478 
L 254.563656 230.63598 
L 205.912669 230.63598 
z
" clip-path="url(#pac35856398)" style="fill: #0f8a70"/>
   </g>
   <g id="patch_9">
    <path d="M 279.626286 249.899478 
L 328.277273 249.899478 
L 328.277273 215.347488 
L 279.626286 215.347488 
z
" clip-path="url(#pac35856398)" style="fill: #b64e8b"/>
   </g>
   <g id="patch_10">
    <path d="M 353.339903 249.899478 
L 401.99089 249.899478 
L 401.99089 76.22222 
L 353.339903 76.22222 
z
" clip-path="url(#pac35856398)" style="fill: #2563eb; stroke: #132d3d; stroke-width: 0.9; stroke-linejoin: miter"/>
   </g>
   <g id="text_11">
    <text style="font-weight: 700; font-size: 13.72px; font-family: 'DejaVu Sans'; text-anchor: middle; fill: #66727d" x="82.810929" y="235.426894" transform="rotate(-0 82.810929 235.426894)">2.3</text>
   </g>
   <g id="text_12">
    <text style="font-weight: 700; font-size: 13.72px; font-family: 'DejaVu Sans'; text-anchor: middle; fill: #d97706" x="156.524546" y="229.617267" transform="rotate(-0 156.524546 229.617267)">4.2</text>
   </g>
   <g id="text_13">
    <text style="font-weight: 700; font-size: 13.72px; font-family: 'DejaVu Sans'; text-anchor: middle; fill: #0f8a70" x="230.238163" y="223.196101" transform="rotate(-0 230.238163 223.196101)">6.3</text>
   </g>
   <g id="text_14">
    <text style="font-weight: 700; font-size: 13.72px; font-family: 'DejaVu Sans'; text-anchor: middle; fill: #b64e8b" x="303.951779" y="207.90761" transform="rotate(-0 303.951779 207.90761)">11.3</text>
   </g>
   <g id="text_15">
    <text style="font-weight: 700; font-size: 13.72px; font-family: 'DejaVu Sans'; text-anchor: middle; fill: #2563eb" x="377.665396" y="68.782341" transform="rotate(-0 377.665396 68.782341)">56.8</text>
   </g>
   <g id="text_16">
    <text style="font-weight: 700; font-size: 12.32px; font-family: 'DejaVu Sans'; text-anchor: start; fill: #2563eb" x="48.867283" y="59.654214" transform="rotate(-0 48.867283 59.654214)">+45.5 pp over best baseline</text>
   </g>
   <g id="text_17">
    <text style="font-weight: 700; font-size: 17px; font-family: 'DejaVu Sans'; text-anchor: middle; fill: #132d3d" x="230.238162" y="31.976" transform="rotate(-0 230.238162 31.976)">Success Rate</text>
   </g>
  </g>
  <g id="axes_2">
   <g id="patch_11">
    <path d="M 41.310163 520.2 
L 419.166162 520.2 
L 419.166162 312.276522 
L 41.310163 312.276522 
L 41.310163 520.2 
z
" style="fill: none"/>
   </g>
   <g id="patch_12">
    <path d="M 41.310163 400.244147 
L 175.388098 400.244147 
L 175.388098 312.276522 
L 41.310163 312.276522 
z
" clip-path="url(#p179645c8c1)" style="fill: #e8f0ff"/>
   </g>
   <g id="matplotlib.axis_3">
    <g id="xtick_6">
     <g id="line2d_14"/>
     <g id="text_18">
      <text style="font-size: 12.88px; font-family: 'DejaVu Sans'; text-anchor: middle; fill: #687985" x="65.687969" y="533.486788" transform="rotate(-0 65.687969 533.486788)">25</text>
     </g>
    </g>
    <g id="xtick_7">
     <g id="line2d_15"/>
     <g id="text_19">
      <text style="font-size: 12.88px; font-family: 'DejaVu Sans'; text-anchor: middle; fill: #687985" x="187.577001" y="533.486788" transform="rotate(-0 187.577001 533.486788)">75</text>
     </g>
    </g>
    <g id="xtick_8">
     <g id="line2d_16"/>
     <g id="text_20">
      <text style="font-size: 12.88px; font-family: 'DejaVu Sans'; text-anchor: middle; fill: #687985" x="309.466033" y="533.486788" transform="rotate(-0 309.466033 533.486788)">125</text>
     </g>
    </g>
    <g id="xtick_9">
     <g id="line2d_17"/>
     <g id="text_21">
      <text style="font-size: 12.88px; font-family: 'DejaVu Sans'; text-anchor: middle; fill: #687985" x="406.977259" y="533.486788" transform="rotate(-0 406.977259 533.486788)">165</text>
     </g>
    </g>
    <g id="text_22">
     <text style="font-size: 13.72px; font-family: 'DejaVu Sans'; text-anchor: middle; fill: #344652" x="230.238162" y="553.590481" transform="rotate(-0 230.238162 553.590481)">Navigation Error (m) - lower is better</text>
    </g>
   </g>
   <g id="matplotlib.axis_4">
    <g id="ytick_5">
     <g id="line2d_18">
      <path d="M 41.310163 520.2 
L 419.166162 520.2 
" clip-path="url(#p179645c8c1)" style="fill: none; stroke: #d9e1e7; stroke-opacity: 0.8; stroke-width: 0.8; stroke-linecap: square"/>
     </g>
     <g id="line2d_19"/>
     <g id="text_23">
      <text style="font-size: 12.88px; font-family: 'DejaVu Sans'; text-anchor: end; fill: #687985" x="37.810163" y="525.093394" transform="rotate(-0 37.810163 525.093394)">0</text>
     </g>
    </g>
    <g id="ytick_6">
     <g id="line2d_20">
      <path d="M 41.310163 460.222074 
L 419.166162 460.222074 
" clip-path="url(#p179645c8c1)" style="fill: none; stroke: #d9e1e7; stroke-opacity: 0.8; stroke-width: 0.8; stroke-linecap: square"/>
     </g>
     <g id="line2d_21"/>
     <g id="text_24">
      <text style="font-size: 12.88px; font-family: 'DejaVu Sans'; text-anchor: end; fill: #687985" x="37.810163" y="465.115467" transform="rotate(-0 37.810163 465.115467)">15</text>
     </g>
    </g>
    <g id="ytick_7">
     <g id="line2d_22">
      <path d="M 41.310163 400.244147 
L 419.166162 400.244147 
" clip-path="url(#p179645c8c1)" style="fill: none; stroke: #d9e1e7; stroke-opacity: 0.8; stroke-width: 0.8; stroke-linecap: square"/>
     </g>
     <g id="line2d_23"/>
     <g id="text_25">
      <text style="font-size: 12.88px; font-family: 'DejaVu Sans'; text-anchor: end; fill: #687985" x="37.810163" y="405.137541" transform="rotate(-0 37.810163 405.137541)">30</text>
     </g>
    </g>
    <g id="ytick_8">
     <g id="line2d_24">
      <path d="M 41.310163 340.266221 
L 419.166162 340.266221 
" clip-path="url(#p179645c8c1)" style="fill: none; stroke: #d9e1e7; stroke-opacity: 0.8; stroke-width: 0.8; stroke-linecap: square"/>
     </g>
     <g id="line2d_25"/>
     <g id="text_26">
      <text style="font-size: 12.88px; font-family: 'DejaVu Sans'; text-anchor: end; fill: #687985" x="37.810163" y="345.159614" transform="rotate(-0 37.810163 345.159614)">45</text>
     </g>
    </g>
    <g id="text_27">
     <text style="font-size: 13.72px; font-family: 'DejaVu Sans'; text-anchor: middle; fill: #344652" x="14.567031" y="416.238261" transform="rotate(-90 14.567031 416.238261)">SPL (%) - higher is better</text>
    </g>
   </g>
   <g id="patch_13">
    <path d="M 41.310163 520.2 
L 41.310163 312.276522 
" style="fill: none; stroke: #aab7c0; stroke-width: 0.9; stroke-linejoin: miter; stroke-linecap: square"/>
   </g>
   <g id="patch_14">
    <path d="M 41.310163 520.2 
L 419.166162 520.2 
" style="fill: none; stroke: #aab7c0; stroke-width: 0.9; stroke-linejoin: miter; stroke-linecap: square"/>
   </g>
   <g id="text_28">
    <text style="font-weight: 700; font-size: 12.6px; font-family: 'DejaVu Sans'; text-anchor: start; fill: #2563eb" x="48.623504" y="333.046433" transform="rotate(-0 48.623504 333.046433)">better</text>
   </g>
   <g id="PathCollection_1">
    <path d="M 73.001311 359.044976 
C 75.012313 359.044976 76.94122 358.245996 78.363214 356.824003 
C 79.785207 355.40201 80.584186 353.473102 80.584186 351.4621 
C 80.584186 349.451098 79.785207 347.522191 78.363214 346.100198 
C 76.94122 344.678204 75.012313 343.879225 73.001311 343.879225 
C 70.990309 343.879225 69.061401 344.678204 67.639408 346.100198 
C 66.217415 347.522191 65.418435 349.451098 65.418435 351.4621 
C 65.418435 353.473102 66.217415 355.40201 67.639408 356.824003 
C 69.061401 358.245996 70.990309 359.044976 73.001311 359.044976 
z
" clip-path="url(#p179645c8c1)" style="fill: #2563eb; fill-opacity: 0.16"/>
   </g>
   <g id="PathCollection_2">
    <defs>
     <path id="m9e53d3e644" d="M 0 4.242641 
C 1.125161 4.242641 2.204391 3.795609 3 3 
C 3.795609 2.204391 4.242641 1.125161 4.242641 0 
C 4.242641 -1.125161 3.795609 -2.204391 3 -3 
C 2.204391 -3.795609 1.125161 -4.242641 0 -4.242641 
C -1.125161 -4.242641 -2.204391 -3.795609 -3 -3 
C -3.795609 -2.204391 -4.242641 -1.125161 -4.242641 0 
C -4.242641 1.125161 -3.795609 2.204391 -3 3 
C -2.204391 3.795609 -1.125161 4.242641 0 4.242641 
z
" style="stroke: #ffffff"/>
    </defs>
    <g clip-path="url(#p179645c8c1)">
     <use xlink:href="#m9e53d3e644" x="350.17697" y="511.403237" style="fill: #66727d; stroke: #ffffff"/>
    </g>
   </g>
   <g id="PathCollection_3">
    <defs>
     <path id="m811182ed5e" d="M -4.242641 4.242641 
L 4.242641 4.242641 
L 4.242641 -4.242641 
L -4.242641 -4.242641 
z
" style="stroke: #ffffff"/>
    </defs>
    <g clip-path="url(#p179645c8c1)">
     <use xlink:href="#m811182ed5e" x="343.107406" y="505.005592" style="fill: #d97706; stroke: #ffffff"/>
    </g>
   </g>
   <g id="PathCollection_4">
    <defs>
     <path id="m3d4a394456" d="M -0 6 
L 6 0 
L 0 -6 
L -6 -0 
z
" style="stroke: #ffffff"/>
    </defs>
    <g clip-path="url(#p179645c8c1)">
     <use xlink:href="#m3d4a394456" x="309.709812" y="497.408388" style="fill: #0f8a70; stroke: #ffffff"/>
    </g>
   </g>
   <g id="PathCollection_5">
    <defs>
     <path id="m78cee72bed" d="M 0 -4.242641 
L -4.242641 4.242641 
L 4.242641 4.242641 
z
" style="stroke: #ffffff"/>
    </defs>
    <g clip-path="url(#p179645c8c1)">
     <use xlink:href="#m78cee72bed" x="268.755097" y="483.013686" style="fill: #b64e8b; stroke: #ffffff"/>
    </g>
   </g>
   <g id="PathCollection_6">
    <defs>
     <path id="m25be44ff14" d="M 0 -5.291503 
L -1.188016 -1.635164 
L -5.032518 -1.635164 
L -1.922251 0.624577 
L -3.110267 4.280916 
L -0 2.021174 
L 3.110267 4.280916 
L 1.922251 0.624577 
L 5.032518 -1.635164 
L 1.188016 -1.635164 
z
" style="stroke: #ffffff"/>
    </defs>
    <g clip-path="url(#p179645c8c1)">
     <use xlink:href="#m25be44ff14" x="73.001311" y="351.4621" style="fill: #2563eb; stroke: #ffffff"/>
    </g>
   </g>
   <g id="text_29">
    <text style="font-size: 12.32px; font-family: 'DejaVu Sans'; text-anchor: start; fill: #66727d" x="357.17697" y="518.403237" transform="rotate(-0 357.17697 518.403237)">CMA</text>
   </g>
   <g id="text_30">
    <text style="font-size: 12.32px; font-family: 'DejaVu Sans'; text-anchor: start; fill: #d97706" x="285.107406" y="504.005592" transform="rotate(-0 285.107406 504.005592)">TravelUAV</text>
   </g>
   <g id="text_31">
    <text style="font-size: 12.32px; font-family: 'DejaVu Sans'; text-anchor: start; fill: #0f8a70" x="314.709812" y="481.408388" transform="rotate(-0 314.709812 481.408388)">NavFoM</text>
   </g>
   <g id="text_32">
    <text style="font-size: 12.32px; font-family: 'DejaVu Sans'; text-anchor: start; fill: #b64e8b" x="230.755097" y="465.013686" transform="rotate(-0 230.755097 465.013686)">LongFly</text>
   </g>
   <g id="text_33">
    <text style="font-weight: 700; font-size: 12.32px; font-family: 'DejaVu Sans'; text-anchor: start; fill: #2563eb" x="81.001311" y="343.4621" transform="rotate(-0 81.001311 343.4621)">AeroLANCE</text>
   </g>
  </g>
  <g id="text_34">
   <text style="font-weight: 700; font-size: 19px; font-family: 'DejaVu Sans'; text-anchor: middle; fill: #132d3d" x="207.198162" y="18.037031" transform="rotate(-0 207.198162 18.037031)">Unseen Map</text>
  </g>
 </g>
 <defs>
  <clipPath id="pac35856398">
   <rect x="41.310163" y="41.976" width="377.856" height="207.923478"/>
  </clipPath>
  <clipPath id="p179645c8c1">
   <rect x="41.310163" y="312.276522" width="377.856" height="207.923478"/>
  </clipPath>
 </defs>
</svg>
